<?xml version="1.0" encoding="UTF-8" standalone="no"?>
<!-- Created with Inkscape (http://www.inkscape.org/) -->

<svg
   width="130mm"
   height="60mm"
   viewBox="0 0 130 60"
   version="1.1"
   id="svg4659"
   inkscape:version="1.2.2 (b0a84865, 2022-12-01)"
   sodipodi:docname="dinamica-circular-2.svg"
   xmlns:inkscape="http://www.inkscape.org/namespaces/inkscape"
   xmlns:sodipodi="http://sodipodi.sourceforge.net/DTD/sodipodi-0.dtd"
   xmlns="http://www.w3.org/2000/svg"
   xmlns:svg="http://www.w3.org/2000/svg">
  <sodipodi:namedview
     id="namedview4661"
     pagecolor="#ffffff"
     bordercolor="#999999"
     borderopacity="1"
     inkscape:showpageshadow="0"
     inkscape:pageopacity="0"
     inkscape:pagecheckerboard="0"
     inkscape:deskcolor="#d1d1d1"
     inkscape:document-units="mm"
     showgrid="false"
     inkscape:zoom="0.71535494"
     inkscape:cx="250.22543"
     inkscape:cy="316.62604"
     inkscape:window-width="1390"
     inkscape:window-height="953"
     inkscape:window-x="0"
     inkscape:window-y="25"
     inkscape:window-maximized="0"
     inkscape:current-layer="layer1" />
  <defs
     id="defs4656" />
  <g
     inkscape:label="Layer 1"
     inkscape:groupmode="layer"
     id="layer1">
    <ellipse
       style="fill:none;stroke:#000000;stroke-width:0.470322;stroke-linecap:round;stroke-linejoin:round;stroke-miterlimit:4;stroke-dasharray:3.76258, 3.76258;stroke-dashoffset:0"
       id="path932"
       cx="8.4109602"
       cy="65.019333"
       rx="31.775143"
       ry="20.575695"
       transform="matrix(0.94807389,-0.31805016,0.88471049,0.46614091,0,0)"
       inkscape:export-filename="C:\Backup\Academic\My Notes\Resueltos F1\PNG\U2EJ40.png"
       inkscape:export-xdpi="300"
       inkscape:export-ydpi="300" />
    <path
       style="fill:#000000;fill-opacity:0.2;stroke:#000000;stroke-width:0.3;stroke-linecap:round;stroke-linejoin:round;stroke-miterlimit:4;stroke-dasharray:none;stroke-opacity:1"
       d="M 127.61666,27.321998 50.987558,53.028749 3.3783079,27.944141 80.007408,2.2373915 Z"
       id="path936"
       inkscape:export-filename="C:\Backup\Academic\My Notes\Resueltos F1\PNG\U2EJ40.png"
       inkscape:export-xdpi="300"
       inkscape:export-ydpi="300" />
    <path
       style="fill:#000000;fill-opacity:0.4;stroke:#000000;stroke-width:0.3;stroke-linecap:round;stroke-linejoin:round;stroke-miterlimit:4;stroke-dasharray:none;stroke-opacity:1"
       d="M 127.61666,32.46252 50.987558,58.169271 3.3783079,33.084663 V 27.944141 L 50.987558,53.028749 127.61666,27.321998 Z"
       id="path961"
       inkscape:export-filename="C:\Backup\Academic\My Notes\Resueltos F1\PNG\U2EJ40.png"
       inkscape:export-xdpi="300"
       inkscape:export-ydpi="300" />
    <path
       style="fill:none;stroke:#000000;stroke-width:0.3;stroke-linecap:butt;stroke-linejoin:miter;stroke-miterlimit:4;stroke-dasharray:none;stroke-opacity:1"
       d="M 50.987558,53.028747 V 58.16927"
       id="path986"
       inkscape:export-filename="C:\Backup\Academic\My Notes\Resueltos F1\PNG\U2EJ40.png"
       inkscape:export-xdpi="300"
       inkscape:export-ydpi="300" />
    <path
       style="fill:none;stroke:#000000;stroke-width:0.4;stroke-linecap:round;stroke-linejoin:round;stroke-miterlimit:4;stroke-dasharray:none;stroke-opacity:1"
       d="M 65.497468,27.633068 V 23.999501"
       id="path992"
       inkscape:export-filename="C:\Backup\Academic\My Notes\Resueltos F1\PNG\U2EJ40.png"
       inkscape:export-xdpi="300"
       inkscape:export-ydpi="300" />
    <path
       style="fill:none;fill-opacity:1;fill-rule:evenodd;stroke:#000000;stroke-width:0.4;stroke-linecap:round;stroke-linejoin:round;stroke-miterlimit:4;stroke-dasharray:none;stroke-dashoffset:0;stroke-opacity:1;paint-order:stroke fill markers"
       d="m 70.749698,22.592167 c 0.29531,0.657587 0.65157,1.271616 1.02896,1.750319 0.37744,0.478673 0.77506,0.819834 1.14713,0.971804 0.37207,0.151978 0.71749,0.113194 0.99825,-0.112816 0.28079,-0.225985 0.49589,-0.639641 0.62635,-1.183269 0.13044,-0.543648 0.1756,-1.216449 0.14113,-1.92365 -0.0344,-0.70721 -0.1487,-1.446941 -0.31422,-2.11527 -0.16601,-0.668223 -0.3815,-1.263039 -0.60507,-1.7017 -0.22362,-0.438614 -0.45377,-0.719097 -0.64565,-0.804926 -0.19188,-0.08575 -0.34439,0.02442 -0.42407,0.310291 -0.0796,0.285933 -0.0856,0.747806 -0.006,1.314708 0.0799,0.566892 0.24642,1.237649 0.48597,1.911798 0.23984,0.674113 0.55317,1.34944 0.90588,1.925359 0.35269,0.575894 0.74445,1.049983 1.12993,1.351263 0.38547,0.301284 0.76375,0.427793 1.09201,0.359115 0.32823,-0.06873 0.60538,-0.333574 0.80337,-0.758264 0.19798,-0.424749 0.31605,-1.009113 0.34922,-1.67096 0.0332,-0.661875 -0.0188,-1.399639 -0.1365,-2.109586 -0.11756,-0.70994 -0.30044,-1.389765 -0.51068,-1.94449 -0.20964,-0.554845 -0.44567,-0.982363 -0.66164,-1.224769 -0.21612,-0.242337 -0.41144,-0.297779 -0.54624,-0.162504 -0.13474,0.135273 -0.20805,0.461899 -0.19784,0.928469 0.0103,0.46662 0.10438,1.072492 0.28058,1.726212 0.17613,0.653717 0.43413,1.353567 0.74782,1.995111 0.31369,0.641527 0.68304,1.222351 1.06583,1.655874 0.38278,0.433496 0.77821,0.717478 1.14086,0.808588 0.36265,0.09113 0.69148,-0.01193 0.95075,-0.296722 0.25934,-0.28458 0.44829,-0.75078 0.55162,-1.333416 0.10325,-0.582632 0.12053,-1.280686 0.0612,-1.9958 -0.0594,-0.715057 -0.19516,-1.44527 -0.3755,-2.088187 -0.17957,-0.643122 -0.40537,-1.196032 -0.62991,-1.583279 -0.22469,-0.387232 -0.44813,-0.606516 -0.62665,-0.630197 -0.17859,-0.02357 -0.31092,0.149332 -0.36675,0.489742 -0.0558,0.340463 -0.0342,0.848237 0.073,1.445943 0.10725,0.597692 0.30035,1.283966 0.56294,1.956029 0.26239,0.672106 0.59403,1.327859 0.9582,1.869521 0.3641,0.541675 0.76009,0.966934 1.14225,1.211881 0.38216,0.244978 0.74953,0.30781 1.06076,0.17732 0.31125,-0.130504 0.56539,-0.455023 0.73772,-0.928813 0.17234,-0.47378 0.2621,-1.096292 0.26852,-1.779926 0.006,-0.683611 -0.0708,-1.426729 -0.20831,-2.124771 -0.13746,-0.69807 -0.33492,-1.348818 -0.55193,-1.861596 -0.21691,-0.512814 -0.45255,-0.88543 -0.66114,-1.067963 -0.20845,-0.182574 -0.38886,-0.173488 -0.50347,0.02163 -0.11454,0.195136 -0.16252,0.576876 -0.12551,1.085785 0.037,0.508893 0.15953,1.144122 0.36119,1.810098 0.20193,0.665896 0.48219,1.360855 0.81276,1.9809 0.3306,0.620048 0.71035,1.163016 1.09609,1.547705 0.38573,0.384705 0.7765,0.609049 1.12748,0.638409 0.35098,0.02933 0.66118,-0.137438 0.89762,-0.478543 0.23649,-0.341046 0.39841,-0.856278 0.47445,-1.473419 0.076,-0.617171 0.0658,-1.335055 -0.0172,-2.052531 -0.083,-0.71744 -0.2384,-1.432497 -0.43219,-2.044849 -0.19389,-0.612318 -0.42466,-1.11982 -0.64783,-1.452737 -0.22318,-0.332922 -0.43764,-0.48941 -0.60071,-0.45095 -0.16314,0.03802 -0.27372,0.272737 -0.30461,0.664784 -0.031,0.392118 0.0189,0.941584 0.1531,1.565083 0.13427,0.623554 0.35351,1.319617 0.63722,1.984126 0.28363,0.664564 0.63161,1.295308 1.0048,1.798267 0.37327,0.502959 0.77101,0.875827 1.14742,1.062338 0.37645,0.186489 0.73057,0.184968 1.02297,-0.0064 0.29241,-0.19147 0.52215,-0.573267 0.66809,-1.092468 0.14593,-0.519214 0.2074,-1.175067 0.18764,-1.875203 -0.0202,-0.700135 -0.12088,-1.442757 -0.27654,-2.123524 -0.15561,-0.680794 -0.36583,-1.297304 -0.58765,-1.764118 -0.22179,-0.466843 -0.45473,-0.781719 -0.6534,-0.903171 -0.19861,-0.121533 -0.36187,-0.0481 -0.45475,0.205233 -0.0929,0.253381 -0.11438,0.686903 -0.0502,1.233882 0.0642,0.546988 0.21454,1.206343 0.44065,1.879069 0.22622,0.672717 0.52805,1.356839 0.87323,1.950341 0.34513,0.593499 0.73329,1.093996 1.11957,1.426634 0.38627,0.332628 0.76983,0.495398 1.10699,0.462584 0.3372,-0.03272 0.6269,-0.262169 0.83927,-0.657202 0.2124,-0.39496 0.34662,-0.955263 0.39542,-1.602186 0.0488,-0.646916 0.0117,-1.379052 -0.0936,-2.093365 -0.10536,-0.714281 -0.27885,-1.408524 -0.48331,-1.985723 -0.20446,-0.577211 -0.43921,-1.035044 -0.6587,-1.311126 -0.21941,-0.27609 -0.42236,-0.368716 -0.56803,-0.268597 -0.14573,0.100222 -0.23301,0.393639 -0.23804,0.834005 -0.005,0.440353 0.0729,1.026978 0.2338,1.671227 0.15966,0.644566 0.40495,1.344394 0.7084,1.995835 0.30332,0.651499 0.66535,1.252085 1.04532,1.712131 0.37999,0.460035 0.77701,0.777343 1.14537,0.903718 0.36834,0.126406 0.70703,0.06034 0.9789,-0.190582 0.27188,-0.250972 0.47608,-0.687253 0.59509,-1.247929 0.119,-0.560643 0.15232,-1.244767 0.10722,-1.955965 -0.008,-0.129249 -0.0189,-0.259544 -0.0323,-0.389865"
       id="path3890-5-2-3"
       inkscape:connector-curvature="0"
       inkscape:export-filename="C:\Backup\Academic\My Notes\Resueltos F1\PNG\U2EJ40.png"
       inkscape:export-xdpi="300"
       inkscape:export-ydpi="300" />
    <path
       style="fill:none;stroke:#000000;stroke-width:0.4;stroke-linecap:round;stroke-linejoin:round;stroke-miterlimit:4;stroke-dasharray:none;stroke-opacity:1"
       d="m 70.749698,22.592167 -5.25224,1.407337"
       id="path992-0-8"
       inkscape:export-filename="C:\Backup\Academic\My Notes\Resueltos F1\PNG\U2EJ40.png"
       inkscape:export-xdpi="300"
       inkscape:export-ydpi="300" />
    <path
       style="fill:none;stroke:#000000;stroke-width:0.4;stroke-linecap:round;stroke-linejoin:round;stroke-miterlimit:4;stroke-dasharray:none;stroke-opacity:1"
       d="m 97.955753,15.38322 -3.911885,0.978751"
       id="path992-0-8-6"
       inkscape:export-filename="C:\Backup\Academic\My Notes\Resueltos F1\PNG\U2EJ40.png"
       inkscape:export-xdpi="300"
       inkscape:export-ydpi="300" />
    <circle
       cy="15.383221"
       cx="97.955757"
       id="circle5019-1"
       style="fill:#000000;fill-opacity:1;fill-rule:evenodd;stroke:none;stroke-width:0.300001;stroke-linecap:round;stroke-linejoin:round;stroke-miterlimit:4;stroke-dasharray:none;stroke-dashoffset:0;stroke-opacity:1;paint-order:markers stroke fill"
       inkscape:export-xdpi="300"
       inkscape:export-ydpi="300"
       inkscape:export-filename="C:\Backup\Academic\My Notes\Resueltos F1\PNG\U2EJ40.png"
       r="2.0067196" />
  </g>
</svg>
