<?xml version="1.0" encoding="UTF-8" standalone="no"?>
<!-- Created with Inkscape (http://www.inkscape.org/) -->

<svg
   width="160mm"
   height="50mm"
   viewBox="0 0 160 50"
   version="1.1"
   id="svg5"
   xml:space="preserve"
   inkscape:version="1.2.2 (b0a84865, 2022-12-01)"
   sodipodi:docname="dinamica-tension-1.svg"
   xmlns:inkscape="http://www.inkscape.org/namespaces/inkscape"
   xmlns:sodipodi="http://sodipodi.sourceforge.net/DTD/sodipodi-0.dtd"
   xmlns="http://www.w3.org/2000/svg"
   xmlns:svg="http://www.w3.org/2000/svg"><sodipodi:namedview
     id="namedview7"
     pagecolor="#ffffff"
     bordercolor="#999999"
     borderopacity="1"
     inkscape:showpageshadow="0"
     inkscape:pageopacity="0"
     inkscape:pagecheckerboard="0"
     inkscape:deskcolor="#d1d1d1"
     inkscape:document-units="mm"
     showgrid="false"
     inkscape:zoom="0.97517857"
     inkscape:cx="390.69767"
     inkscape:cy="28.199963"
     inkscape:window-width="1390"
     inkscape:window-height="953"
     inkscape:window-x="530"
     inkscape:window-y="33"
     inkscape:window-maximized="0"
     inkscape:current-layer="layer1" /><defs
     id="defs2" /><g
     inkscape:label="Layer 1"
     inkscape:groupmode="layer"
     id="layer1"><path
       style="fill:none;stroke:#000000;stroke-width:0.0999999;stroke-linejoin:round;stroke-dasharray:none"
       d="m 25.537091,26.543501 h -0.528685 c 0,-1.99427 1.602969,-3.610946 3.580331,-3.610946 1.977361,0 3.58033,1.616676 3.58033,3.610946 h -0.528685"
       id="path1079" /><path
       style="fill:none;stroke:#000000;stroke-width:0.199999;stroke-linejoin:round;stroke-dasharray:none"
       d="m 31.782289,26.010973 -1.399116,5.250415 H 26.7943 l -1.399115,-5.250415 z"
       id="path251" /><path
       style="fill:none;stroke:#000000;stroke-width:0.2;stroke-linejoin:round;stroke-dasharray:none"
       d="M 6.0733252,34.776241 16.75312,12.26083 28.588737,1.5348054 11.020243,9.7642559 3.6229832,34.868708"
       id="path2630" /><path
       style="fill:none;stroke:#000000;stroke-width:0.2;stroke-linejoin:round;stroke-dasharray:none"
       d="M 5.2165672,29.460481 9.8515229,26.810949 7.6471792,21.211591 13.830538,18.422285 9.9059989,13.54572 16.75312,12.260829 11.020243,9.7642559"
       id="path2632" /><path
       style="fill:none;stroke:#000000;stroke-width:0.2;stroke-linejoin:round;stroke-dasharray:none"
       d="m 16.75312,12.26083 0.297027,-5.3211061 4.65061,0.837311 0.666112,-3.3277756 3.239958,-0.212101"
       id="path2634" /><path
       style="fill:none;stroke:#000000;stroke-width:0.3;stroke-linejoin:round;stroke-dasharray:none"
       d="M 28.588737,1.5348054 V 22.932555"
       id="path2675" /><path
       style="fill:none;stroke:#000000;stroke-width:0.0999999;stroke-linejoin:round;stroke-dasharray:none"
       d="m 67.870426,23.809629 h -0.528685 c 0,-1.99427 1.602969,-3.610946 3.580331,-3.610946 1.977361,0 3.58033,1.616676 3.58033,3.610946 h -0.528685"
       id="path4203" /><path
       style="fill:none;stroke:#000000;stroke-width:0.199999;stroke-linejoin:round;stroke-dasharray:none"
       d="m 74.115624,23.277101 -1.399116,5.250415 H 69.127635 L 67.72852,23.277101 Z"
       id="path4205" /><path
       style="fill:none;stroke:#000000;stroke-width:0.2;stroke-linejoin:round;stroke-dasharray:none"
       d="M 48.40666,34.776241 59.086455,12.26083 70.922072,1.5348054 53.353578,9.7642559 45.956318,34.868708"
       id="path4207" /><path
       style="fill:none;stroke:#000000;stroke-width:0.2;stroke-linejoin:round;stroke-dasharray:none"
       d="m 47.549902,29.460481 4.634956,-2.649532 -2.204344,-5.599358 6.183359,-2.789306 -3.924539,-4.876565 6.847121,-1.284891 -5.732877,-2.4965731"
       id="path4209" /><path
       style="fill:none;stroke:#000000;stroke-width:0.2;stroke-linejoin:round;stroke-dasharray:none"
       d="m 59.086455,12.26083 0.297027,-5.3211061 4.65061,0.837311 0.666112,-3.3277756 3.239958,-0.212101"
       id="path4211" /><path
       style="fill:none;stroke:#000000;stroke-width:0.3;stroke-linejoin:round;stroke-dasharray:none"
       d="M 70.922072,1.5348054 V 20.198683"
       id="path4213" /><path
       style="fill:none;stroke:#000000;stroke-width:0.0999999;stroke-linejoin:round;stroke-dasharray:none"
       d="m 110.20376,15.869413 h -0.52869 c 0,-1.99427 1.60297,-3.610946 3.58033,-3.610946 1.97736,0 3.58033,1.616676 3.58033,3.610946 h -0.52868"
       id="path4217" /><path
       style="fill:none;stroke:#000000;stroke-width:0.199999;stroke-linejoin:round;stroke-dasharray:none"
       d="m 116.44895,15.336885 -1.39911,5.250415 h -3.58887 l -1.39912,-5.250415 z"
       id="path4219" /><path
       style="fill:none;stroke:#000000;stroke-width:0.2;stroke-linejoin:round;stroke-dasharray:none"
       d="M 90.739996,34.776241 101.41979,12.26083 113.2554,1.5348054 95.686915,9.7642559 88.289654,34.868708"
       id="path4221" /><path
       style="fill:none;stroke:#000000;stroke-width:0.2;stroke-linejoin:round;stroke-dasharray:none"
       d="m 89.883238,29.460481 4.634957,-2.649532 -2.20435,-5.599358 6.18336,-2.789306 -3.92454,-4.876565 6.847125,-1.284891 -5.732875,-2.4965731"
       id="path4223" /><path
       style="fill:none;stroke:#000000;stroke-width:0.2;stroke-linejoin:round;stroke-dasharray:none"
       d="m 101.41979,12.26083 0.29702,-5.3211061 4.65061,0.837311 0.66611,-3.3277756 3.23996,-0.212101"
       id="path4225" /><path
       style="fill:none;stroke:#000000;stroke-width:0.3;stroke-linejoin:round;stroke-dasharray:none"
       d="M 113.2554,1.5348054 V 12.258467"
       id="path4227" /><path
       style="fill:none;stroke:#000000;stroke-width:0.0999999;stroke-linejoin:round;stroke-dasharray:none"
       d="m 152.53711,19.636877 h -0.52869 c 0,-1.99427 1.60297,-3.610946 3.58033,-3.610946 1.97737,0 3.58033,1.616676 3.58033,3.610946 h -0.52868"
       id="path4231" /><path
       style="fill:none;stroke:#000000;stroke-width:0.199999;stroke-linejoin:round;stroke-dasharray:none"
       d="m 158.78231,19.104349 -1.39912,5.250415 h -3.58887 l -1.39912,-5.250415 z"
       id="path4233" /><path
       style="fill:none;stroke:#000000;stroke-width:0.2;stroke-linejoin:round;stroke-dasharray:none"
       d="M 133.07334,34.776241 143.75314,12.26083 155.58875,1.5348054 138.02026,9.7642559 130.623,34.868708"
       id="path4235" /><path
       style="fill:none;stroke:#000000;stroke-width:0.2;stroke-linejoin:round;stroke-dasharray:none"
       d="m 132.21658,29.460481 4.63496,-2.649532 -2.20434,-5.599358 6.18336,-2.789306 -3.92454,-4.876565 6.84712,-1.284891 -5.73288,-2.4965731"
       id="path4237" /><path
       style="fill:none;stroke:#000000;stroke-width:0.2;stroke-linejoin:round;stroke-dasharray:none"
       d="m 143.75314,12.26083 0.29702,-5.3211061 4.65061,0.837311 0.66612,-3.3277756 3.23995,-0.212101"
       id="path4239" /><path
       style="fill:none;stroke:#000000;stroke-width:0.3;stroke-linejoin:round;stroke-dasharray:none"
       d="M 155.58875,1.5348054 V 12.572618"
       id="path4241" /><text
       xml:space="preserve"
       style="font-size:3.175px;line-height:0px;font-family:jost;-inkscape-font-specification:jost;white-space:pre;inline-size:33.9853;display:inline;fill:#000000;fill-opacity:1;stroke:none;stroke-width:0.3;stroke-linejoin:round;stroke-dasharray:none"
       x="10.581395"
       y="45.310078"
       id="text4299"
       transform="translate(0.58967095,-2.8367623)"><tspan
         x="10.581395"
         y="45.310078"
         id="tspan6877">Caso A</tspan></text><text
       xml:space="preserve"
       style="font-size:3.175px;line-height:0px;font-family:jost;-inkscape-font-specification:jost;white-space:pre;inline-size:33.9853;display:inline;fill:#000000;fill-opacity:1;stroke:none;stroke-width:0.3;stroke-linejoin:round;stroke-dasharray:none"
       x="10.581395"
       y="45.310078"
       id="text4407"
       transform="translate(42.923006,-2.8367623)"><tspan
         x="10.581395"
         y="45.310078"
         id="tspan6879">Caso B</tspan></text><text
       xml:space="preserve"
       style="font-size:3.175px;line-height:0px;font-family:jost;-inkscape-font-specification:jost;white-space:pre;inline-size:33.9853;display:inline;fill:#000000;fill-opacity:1;stroke:none;stroke-width:0.3;stroke-linejoin:round;stroke-dasharray:none"
       x="10.581395"
       y="45.310078"
       id="text4411"
       transform="translate(85.256342,-2.8367623)"><tspan
         x="10.581395"
         y="45.310078"
         id="tspan6881">Caso C</tspan></text><text
       xml:space="preserve"
       style="font-size:3.175px;line-height:0px;font-family:jost;-inkscape-font-specification:jost;white-space:pre;inline-size:33.9853;display:inline;fill:#000000;fill-opacity:1;stroke:none;stroke-width:0.3;stroke-linejoin:round;stroke-dasharray:none"
       x="10.581395"
       y="45.310078"
       id="text4415"
       transform="translate(127.58969,-2.8367623)"><tspan
         x="10.581395"
         y="45.310078"
         id="tspan6883">Caso D</tspan></text><text
       xml:space="preserve"
       style="font-size:3.175px;line-height:0px;font-family:jost;-inkscape-font-specification:jost;white-space:pre;inline-size:33.9853;display:inline;fill:#000000;fill-opacity:1;stroke:none;stroke-width:0.3;stroke-linejoin:round;stroke-dasharray:none"
       x="10.581395"
       y="45.310078"
       id="text5895"
       transform="translate(-9.1781952,2.4549044)"><tspan
         x="10.581395"
         y="45.310078"
         id="tspan6885">Permanece en reposo</tspan></text><text
       xml:space="preserve"
       style="font-size:3.175px;line-height:0px;font-family:jost;-inkscape-font-specification:jost;white-space:pre;inline-size:33.9853;display:inline;fill:#000000;fill-opacity:1;stroke:none;stroke-width:0.3;stroke-linejoin:round;stroke-dasharray:none"
       x="10.581395"
       y="45.310078"
       id="text5899"
       transform="translate(34.180669,2.4549044)"><tspan
         x="10.581395"
         y="45.310078"
         id="tspan6887">Acelera hacia arriba</tspan></text><text
       xml:space="preserve"
       style="font-size:3.175px;line-height:0px;font-family:jost;-inkscape-font-specification:jost;white-space:pre;inline-size:33.9853;display:inline;fill:#000000;fill-opacity:1;stroke:none;stroke-width:0.3;stroke-linejoin:round;stroke-dasharray:none"
       x="10.581395"
       y="45.310078"
       id="text5903"
       transform="translate(76.882302,2.4549044)"><tspan
         x="10.581395"
         y="45.310078"
         id="tspan6889">Acelera hacia abajo</tspan></text><text
       xml:space="preserve"
       style="font-size:3.175px;line-height:0px;font-family:jost;-inkscape-font-specification:jost;white-space:pre;inline-size:33.9853;display:inline;fill:#000000;fill-opacity:1;stroke:none;stroke-width:0.3;stroke-linejoin:round;stroke-dasharray:none"
       x="10.581395"
       y="45.310078"
       id="text6633"
       transform="translate(122.24142,2.4549044)"><tspan
         x="10.581395"
         y="45.310078"
         id="tspan6891">Cae libremente</tspan></text><path
       style="fill:none;fill-opacity:1;stroke:#000000;stroke-width:0.0999997;stroke-linejoin:round;stroke-dasharray:none;stroke-opacity:1"
       d="m 68.23788,29.809502 c 0,0 2.721577,1.764256 5.649477,0"
       id="path6775" /><path
       style="fill:none;fill-opacity:1;stroke:#000000;stroke-width:0.0999997;stroke-linejoin:round;stroke-dasharray:none;stroke-opacity:1"
       d="m 67.693627,31.066953 c 0,0 3.245955,2.129094 6.737986,0"
       id="path6777" /><path
       style="fill:none;fill-opacity:1;stroke:#000000;stroke-width:0.0999997;stroke-linejoin:round;stroke-dasharray:none;stroke-opacity:1"
       d="m 67.064657,32.486396 c 0,0 3.851955,2.550946 7.995927,0"
       id="path6779" /><path
       style="fill:none;fill-opacity:1;stroke:#000000;stroke-width:0.0999997;stroke-linejoin:round;stroke-dasharray:none;stroke-opacity:1"
       d="m 110.57122,21.869286 c 0,0 2.72157,1.764256 5.64947,0"
       id="path6775-5" /><path
       style="fill:none;fill-opacity:1;stroke:#000000;stroke-width:0.0999997;stroke-linejoin:round;stroke-dasharray:none;stroke-opacity:1"
       d="m 110.02696,23.126737 c 0,0 3.24596,2.129095 6.73799,0"
       id="path6777-7" /><path
       style="fill:none;fill-opacity:1;stroke:#000000;stroke-width:0.0999997;stroke-linejoin:round;stroke-dasharray:none;stroke-opacity:1"
       d="m 109.39799,24.54618 c 0,0 3.85196,2.550947 7.99593,0"
       id="path6779-1" /></g></svg>
