<?xml version="1.0" encoding="UTF-8" standalone="no"?>
<!-- Created with Inkscape (http://www.inkscape.org/) -->

<svg
   width="160mm"
   height="40mm"
   viewBox="0 0 160 40"
   version="1.1"
   id="svg4170"
   inkscape:version="1.2.2 (b0a84865, 2022-12-01)"
   sodipodi:docname="dinamica-elastica-2.svg"
   xmlns:inkscape="http://www.inkscape.org/namespaces/inkscape"
   xmlns:sodipodi="http://sodipodi.sourceforge.net/DTD/sodipodi-0.dtd"
   xmlns="http://www.w3.org/2000/svg"
   xmlns:svg="http://www.w3.org/2000/svg">
  <sodipodi:namedview
     id="namedview4172"
     pagecolor="#ffffff"
     bordercolor="#999999"
     borderopacity="1"
     inkscape:showpageshadow="0"
     inkscape:pageopacity="0"
     inkscape:pagecheckerboard="0"
     inkscape:deskcolor="#d1d1d1"
     inkscape:document-units="mm"
     showgrid="false"
     inkscape:zoom="0.70710678"
     inkscape:cx="224.85996"
     inkscape:cy="-135.05739"
     inkscape:window-width="1390"
     inkscape:window-height="953"
     inkscape:window-x="0"
     inkscape:window-y="25"
     inkscape:window-maximized="0"
     inkscape:current-layer="layer1" />
  <defs
     id="defs4167" />
  <g
     inkscape:label="Layer 1"
     inkscape:groupmode="layer"
     id="layer1">
    <path
       inkscape:export-ydpi="300"
       inkscape:export-xdpi="300"
       inkscape:export-filename="C:\Users\Admin\Desktop\Resueltos F1\PNG\2021C2P2B.png"
       inkscape:connector-curvature="0"
       id="path3890-5-9-8-2"
       d="m 102.21019,19.212884 c -0.21899,-1.3767 -0.57148,-2.702402 -1.02951,-3.785796 -0.45813,-1.083502 -1.02108,-1.920007 -1.630277,-2.390303 -0.60918,-0.470304 -1.26338,-0.570703 -1.89087,-0.289001 -0.62754,0.281698 -1.22682,0.947002 -1.73445,1.897402 -0.50763,0.950597 -0.92213,2.185092 -1.20712,3.523898 -0.2851,1.338706 -0.43945,2.778198 -0.46438,4.109798 -0.024,1.331798 0.0791,2.551201 0.27412,3.482802 0.19505,0.931502 0.48005,1.570799 0.79053,1.827297 0.31053,0.256306 0.64518,0.126807 0.93252,-0.367498 0.28707,-0.494396 0.52576,-1.354498 0.65807,-2.453799 0.13227,-1.099304 0.15672,-2.436004 0.0484,-3.815699 -0.1088,-1.3797 -0.35224,-2.798502 -0.71702,-4.051198 -0.36469,-1.252704 -0.85139,-2.33471 -1.41169,-3.090708 -0.56031,-0.755997 -1.19347,-1.181698 -1.83079,-1.217797 -0.63732,-0.036 -1.27733,0.320204 -1.850583,1.0147 -0.57323,0.694501 -1.07815,1.727299 -1.46518,2.947499 -0.38718,1.220114 -0.65476,2.624803 -0.78833,4.0102 -0.13371,1.385503 -0.13227,2.747298 -0.0191,3.889106 0.11212,1.141795 0.33544,2.058791 0.61312,2.619898 0.27793,0.561 0.60971,0.762401 0.92418,0.577099 0.31437,-0.185299 0.61007,-0.758903 0.82115,-1.635801 0.211393,-0.876992 0.336423,-2.056303 0.334513,-3.366099 -0.002,-1.309696 -0.13131,-2.746604 -0.392023,-4.102398 -0.26069,-1.355798 -0.65361,-2.626098 -1.14381,-3.627804 -0.49021,-1.001694 -1.07733,-1.730301 -1.69918,-2.082094 -0.62184,-0.351905 -1.277196,-0.3239 -1.894156,0.07799 -0.61697,0.401901 -1.19403,1.178406 -1.67105,2.215399 -0.47682,1.037004 -0.85249,2.332703 -1.09578,3.698607 -0.24297,1.365896 -0.3532,2.798295 -0.33835,4.089992 0.0144,1.291607 0.15623,2.437802 0.37812,3.273902 0.22236,0.836005 0.52514,1.357707 0.84167,1.491303 0.31674,0.133424 0.64521,-0.123401 0.91555,-0.731503 0.2703,-0.608299 0.48068,-1.567905 0.5781,-2.738396 0.0973,-1.170604 0.0805,-2.549601 -0.0714,-3.936906 -0.15143,-1.387199 -0.43801,-2.778594 -0.84069,-3.973097 -0.40256,-1.194397 -0.92113,-2.187399 -1.50304,-2.836403 -0.58192,-0.649099 -1.2264,-0.950399 -1.86289,-0.862398 -0.63653,0.088 -1.26363,0.567104 -1.81387,1.366105 -0.55024,0.799096 -1.02196,1.917299 -1.37053,3.191499 -0.34868,1.274224 -0.57264,2.701503 -0.66374,4.074694 -0.091,1.373201 -0.0489,2.688007 0.0978,3.754807 0.14617,1.066894 0.39583,1.881096 0.68941,2.3266 0.29328,0.445601 0.62946,0.518896 0.93629,0.211744 0.30671,-0.307299 0.58298,-0.996601 0.76568,-1.966102 0.18261,-0.969386 0.27027,-2.217695 0.22761,-3.563099 -0.0431,-1.345397 -0.21613,-2.7843 -0.51841,-4.108395 -0.30239,-1.324204 -0.73308,-2.528903 -1.25274,-3.440806 -0.51967,-0.911995 -1.12757,-1.526892 -1.75837,-1.757493 -0.63085,-0.230531 -1.28331,-0.07401 -1.8861,0.444798 -0.60275,0.518896 -1.15426,1.400599 -1.5981,2.5157 -0.44377,1.1151 -0.77861,2.461703 -0.97945,3.843908 -0.20081,1.382206 -0.26741,2.796105 -0.21279,4.037408 0.0546,1.241195 0.22908,2.305095 0.4754,3.038901 0.24633,0.733797 0.56352,1.133595 0.88225,1.143393 0.31869,0.01096 0.63761,-0.3726 0.88753,-1.089701 0.25015,-0.717195 0.42943,-1.768786 0.48953,-3.001195 0.0604,-1.232306 1.6e-4,-2.642704 -0.19408,-4.026501 -0.19409,-1.383805 -0.52313,-2.736603 -0.96148,-3.863297 -0.43849,-1.126701 -0.98606,-2.0226 -1.58622,-2.559601 -0.60023,-0.536906 -1.25203,-0.7114 -1.88405,-0.499654 -0.631911,0.211404 -1.242402,0.809808 -1.766465,1.706908 -0.524103,0.89709 -0.960193,2.09179 -1.268763,3.409993 -0.308569,1.31812 -0.488526,2.756402 -0.537698,4.106405 -0.0494,1.349995 0.0336,2.607297 0.211346,3.590598 0.177785,0.983402 0.450945,1.688404 0.756366,2.014804 0.305262,0.326596 0.641617,0.2711 0.937168,-0.155802 0.295684,-0.426897 0.548658,-1.226198 0.700167,-2.280396 0.151437,-1.054196 0.199858,-2.361602 0.115492,-3.731899 -0.0844,-1.370306 -0.3024,-2.799705 -0.644651,-4.081606 -0.342157,-1.281793 -0.809215,-2.411293 -1.355553,-3.226296 -0.546303,-0.814901 -1.171303,-1.3111 -1.807332,-1.4186 -0.63607,-0.107696 -1.281737,0.175999 -1.866763,0.807802 -0.585093,0.631701 -1.107871,1.611399 -1.516271,2.795794 -0.408285,1.184509 -0.701007,2.570991 -0.859203,3.958505 -0.158139,1.387498 -0.181144,2.771596 -0.0896,3.952499 0.0915,1.1809 0.297595,2.153999 0.565117,2.779699 0.267402,0.625803 0.594905,0.900497 0.912042,0.7864 0.317258,-0.114396 0.622287,-0.618899 0.848479,-1.4393 0.226023,-0.820344 0.371883,-1.955502 0.393444,-3.239897 0.024,-1.2843 -0.08241,-2.714802 -0.319158,-4.084003 -0.236755,-1.369304 -0.606464,-2.672797 -1.07841,-3.722701 -0.472025,-1.0498 -1.045612,-1.841502 -1.66061,-2.262096 -0.614934,-0.420599 -1.270122,-0.466798 -1.89359,-0.134003 -0.623521,0.3328 -1.213856,1.045806 -1.708881,2.033902 -0.494991,0.988002 -0.893232,2.249701 -1.160679,3.601202 -0.04845,0.245714 -0.09303,0.494389 -0.132765,0.744693"
       style="fill:none;fill-opacity:1;fill-rule:evenodd;stroke:#000000;stroke-width:0.500001;stroke-linecap:round;stroke-linejoin:round;stroke-miterlimit:4;stroke-dasharray:none;stroke-dashoffset:0;stroke-opacity:1;paint-order:stroke fill markers" />
    <rect
       inkscape:export-ydpi="300"
       inkscape:export-xdpi="300"
       y="5.9890995"
       x="27.482794"
       height="28.33057"
       width="28.33057"
       id="rect1493-7-6-6"
       style="fill:#000000;fill-opacity:0.196078;fill-rule:evenodd;stroke:#000000;stroke-width:0.5;stroke-linecap:round;stroke-linejoin:round;stroke-miterlimit:4;stroke-dasharray:none;stroke-dashoffset:0;stroke-opacity:1;paint-order:markers stroke fill"
       inkscape:export-filename="C:\Users\Admin\Desktop\Resueltos F1\PNG\2021C2P2A.png" />
    <path
       id="path8610-2"
       style="fill:#000000;fill-opacity:1;stroke:#000000;stroke-width:0.5;stroke-linecap:round;stroke-linejoin:round"
       d="m 35.593906,34.876538 a 2.1515198,2.1515198 0 0 1 -2.635061,1.521345 2.1515198,2.1515198 0 0 1 -1.521356,-2.635074 2.1515198,2.1515198 0 0 1 2.635062,-1.521344 2.1515198,2.1515198 0 0 1 1.521355,2.635073 z"
       inkscape:export-filename="C:\Users\Admin\Desktop\Resueltos F1\PNG\2021C2P2A.png"
       inkscape:export-xdpi="300"
       inkscape:export-ydpi="300" />
    <path
       id="path8610-7-3"
       style="fill:#000000;fill-opacity:1;stroke:#000000;stroke-width:0.5;stroke-linecap:round;stroke-linejoin:round"
       d="m 52.469642,34.87654 a 2.1515198,2.1515198 0 0 1 -2.635062,1.521345 2.1515198,2.1515198 0 0 1 -1.521355,-2.635074 2.1515198,2.1515198 0 0 1 2.635061,-1.521345 2.1515198,2.1515198 0 0 1 1.521356,2.635074 z"
       inkscape:export-filename="C:\Users\Admin\Desktop\Resueltos F1\PNG\2021C2P2A.png"
       inkscape:export-xdpi="300"
       inkscape:export-ydpi="300" />
    <rect
       inkscape:export-ydpi="300"
       inkscape:export-xdpi="300"
       y="5.9890995"
       x="102.71018"
       height="28.33057"
       width="28.33057"
       id="rect1493-7-6-6-7"
       style="fill:#000000;fill-opacity:0.196078;fill-rule:evenodd;stroke:#000000;stroke-width:0.5;stroke-linecap:round;stroke-linejoin:round;stroke-miterlimit:4;stroke-dasharray:none;stroke-dashoffset:0;stroke-opacity:1;paint-order:markers stroke fill"
       inkscape:export-filename="C:\Users\Admin\Desktop\Resueltos F1\PNG\2021C2P2A.png" />
    <path
       id="path8610-2-9"
       style="fill:#000000;fill-opacity:1;stroke:#000000;stroke-width:0.5;stroke-linecap:round;stroke-linejoin:round"
       d="m 110.82133,34.876537 a 2.1515198,2.1515198 0 0 1 -2.63506,1.521345 2.1515198,2.1515198 0 0 1 -1.52136,-2.635074 2.1515198,2.1515198 0 0 1 2.63507,-1.521344 2.1515198,2.1515198 0 0 1 1.52135,2.635073 z"
       inkscape:export-filename="C:\Users\Admin\Desktop\Resueltos F1\PNG\2021C2P2A.png"
       inkscape:export-xdpi="300"
       inkscape:export-ydpi="300" />
    <path
       id="path8610-7-3-3"
       style="fill:#000000;fill-opacity:1;stroke:#000000;stroke-width:0.5;stroke-linecap:round;stroke-linejoin:round"
       d="m 127.69708,34.876539 a 2.1515198,2.1515198 0 0 1 -2.63507,1.521345 2.1515198,2.1515198 0 0 1 -1.52135,-2.635074 2.1515198,2.1515198 0 0 1 2.63506,-1.521345 2.1515198,2.1515198 0 0 1 1.52136,2.635074 z"
       inkscape:export-filename="C:\Users\Admin\Desktop\Resueltos F1\PNG\2021C2P2A.png"
       inkscape:export-xdpi="300"
       inkscape:export-ydpi="300" />
    <path
       style="fill:#000000;stroke:none;stroke-width:0.199999;stroke-linecap:round;stroke-linejoin:round"
       d="m 23.232793,21.154385 4,-1 -4,-1 z"
       id="path4507" />
    <path
       style="fill:#000000;stroke:#000000;stroke-width:0.200001;stroke-linecap:round;stroke-linejoin:round;stroke-opacity:1"
       d="M 23.151046,20.154381 H 5.4887133"
       id="path5063" />
    <text
       xml:space="preserve"
       style="font-size:3.175px;line-height:0px;font-family:'Andale Mono';-inkscape-font-specification:'Andale Mono';fill:#000000;stroke:#000000;stroke-width:0.2;stroke-linecap:round;stroke-linejoin:round;stroke-opacity:1"
       x="41.648075"
       y="20.154383"
       id="text5067"><tspan
         sodipodi:role="line"
         id="tspan5065"
         style="stroke:none;stroke-width:0.2"
         x="41.648075"
         y="20.154383">$A$</tspan></text>
    <text
       xml:space="preserve"
       style="font-size:3.175px;line-height:0px;font-family:'Andale Mono';-inkscape-font-specification:'Andale Mono';fill:#000000;stroke:#000000;stroke-width:0.2;stroke-linecap:round;stroke-linejoin:round;stroke-opacity:1"
       x="10.405913"
       y="13.833502"
       id="text5067-3"><tspan
         sodipodi:role="line"
         id="tspan5065-8"
         style="stroke:none;stroke-width:0.2"
         x="10.405913"
         y="13.833502">$\vec{F}$</tspan></text>
    <text
       xml:space="preserve"
       style="font-size:3.175px;line-height:0px;font-family:'Andale Mono';-inkscape-font-specification:'Andale Mono';fill:#000000;stroke:#000000;stroke-width:0.2;stroke-linecap:round;stroke-linejoin:round;stroke-opacity:1"
       x="115.73137"
       y="20.154383"
       id="text5071"><tspan
         sodipodi:role="line"
         id="tspan5069"
         style="stroke:none;stroke-width:0.2"
         x="115.73137"
         y="20.154383">$A$</tspan></text>
    <path
       style="fill:#000000;stroke:#000000;stroke-width:0.5;stroke-linecap:round;stroke-linejoin:round;stroke-dasharray:none;stroke-opacity:1"
       d="M 2.8597183,36.969149 H 157.87911"
       id="path8765" />
  </g>
</svg>
