<?xml version="1.0" encoding="UTF-8" standalone="no"?>
<!-- Created with Inkscape (http://www.inkscape.org/) -->

<svg
   width="140mm"
   height="60mm"
   viewBox="0 0 140 60"
   version="1.1"
   id="svg5"
   xml:space="preserve"
   sodipodi:docname="dinamica-peso-1.svg"
   inkscape:version="1.2.2 (b0a84865, 2022-12-01)"
   xmlns:inkscape="http://www.inkscape.org/namespaces/inkscape"
   xmlns:sodipodi="http://sodipodi.sourceforge.net/DTD/sodipodi-0.dtd"
   xmlns:xlink="http://www.w3.org/1999/xlink"
   xmlns="http://www.w3.org/2000/svg"
   xmlns:svg="http://www.w3.org/2000/svg"><sodipodi:namedview
     id="namedview7"
     pagecolor="#ffffff"
     bordercolor="#999999"
     borderopacity="1"
     inkscape:showpageshadow="0"
     inkscape:pageopacity="0"
     inkscape:pagecheckerboard="0"
     inkscape:deskcolor="#d1d1d1"
     inkscape:document-units="mm"
     showgrid="false"
     inkscape:zoom="1.4307099"
     inkscape:cx="307.53964"
     inkscape:cy="6.6400604"
     inkscape:window-width="1920"
     inkscape:window-height="953"
     inkscape:window-x="0"
     inkscape:window-y="25"
     inkscape:window-maximized="1"
     inkscape:current-layer="layer1" /><defs
     id="defs2"><linearGradient
       inkscape:collect="always"
       id="linearGradient1004"><stop
         style="stop-color:#000000;stop-opacity:0.30000001;"
         offset="0"
         id="stop1000" /><stop
         style="stop-color:#000000;stop-opacity:0;"
         offset="1"
         id="stop1002" /></linearGradient><linearGradient
       inkscape:collect="always"
       xlink:href="#linearGradient1004"
       id="linearGradient1006"
       x1="10.205539"
       y1="51.029371"
       x2="129.32212"
       y2="51.029371"
       gradientUnits="userSpaceOnUse"
       gradientTransform="matrix(0.05390531,0,0,22.474505,47.990132,-1216.9201)" /><clipPath
       id="clipPath7692"><rect
         style="fill:none;stroke:#000000;stroke-width:0.25;stroke-linejoin:round"
         width="44.198631"
         height="59.363014"
         x="27.369864"
         y="-72.493149"
         id="rect563" /></clipPath><clipPath
       clipPathUnits="userSpaceOnUse"
       id="clipPath593"><rect
         style="fill:none;stroke:#000000;stroke-width:0.25;stroke-linejoin:round"
         id="rect595"
         width="31.879513"
         height="50.527519"
         x="33.670036"
         y="-63.208191" /></clipPath></defs><g
     inkscape:label="Layer 1"
     inkscape:groupmode="layer"
     id="layer1"><path
       style="fill:none;stroke:#000000;stroke-width:0.25;stroke-linejoin:round"
       d="M 10.596432,48.546994 H 129.52403"
       id="path365" /><rect
       style="fill:url(#linearGradient1006);fill-opacity:1;stroke:none;stroke-width:0.250001;stroke-linejoin:round"
       id="rect421"
       width="6.4075389"
       height="118.9276"
       x="48.546993"
       y="-129.52403"
       transform="rotate(90)" /><circle
       style="fill:#000000;fill-opacity:1;stroke:none;stroke-width:0.25;stroke-linejoin:round;stroke-opacity:1"
       id="circle1824"
       cx="31.410601"
       cy="23.753338"
       r="1" /><circle
       style="fill:#000000;fill-opacity:1;stroke:none;stroke-width:0.25;stroke-linejoin:round;stroke-opacity:1"
       id="circle1873"
       cx="61.713421"
       cy="23.753338"
       r="1" /><circle
       style="fill:#000000;fill-opacity:1;stroke:none;stroke-width:0.25;stroke-linejoin:round;stroke-opacity:1"
       id="circle1884"
       cx="18.41246"
       cy="23.753338"
       r="1" /><circle
       style="fill:#000000;fill-opacity:1;stroke:none;stroke-width:0.25;stroke-linejoin:round;stroke-opacity:1"
       id="circle1886"
       cx="85.547638"
       cy="19.618467"
       r="1" /><circle
       style="fill:#000000;fill-opacity:1;stroke:none;stroke-width:0.25;stroke-linejoin:round;stroke-opacity:1"
       id="circle1888"
       cx="105.49393"
       cy="23.753338"
       r="1" /><circle
       style="fill:#000000;fill-opacity:1;stroke:none;stroke-width:0.25;stroke-linejoin:round;stroke-opacity:1"
       id="circle1890"
       cx="119.79973"
       cy="23.753338"
       r="1" /><path
       style="fill:none;stroke:#000000;stroke-width:0.34262767;stroke-linejoin:round;stroke-dasharray:1.37051056,1.37051056;stroke-dashoffset:0"
       d="m 27.3699,47.8973 c 0.508,-5.0802 1.016,-9.9853 1.5241,-14.7154 0.508,-4.7301 1.016,-9.2845 1.524,-13.6643 0.5081,-4.3797 1.0161,-8.5837 1.5241,-12.61312 0.5081,-4.02938 1.0161,-7.883054 1.5241,-11.56207 0.5081,-3.67901 1.0161,-7.18231 1.5241,-10.51101 0.508,-3.3286 1.0161,-6.4815 1.5241,-9.4598 0.508,-2.9783 1.0161,-5.7809 1.5241,-8.4088 0.508,-2.6279 1.0161,-5.0801 1.5241,-7.3577 0.508,-2.2775 1.0161,-4.3794 1.5241,-6.3066 0.508,-1.9272 1.016,-3.6786 1.5241,-5.2555 0.508,-1.5768 1.016,-2.9779 1.5241,-4.2043 0.508,-1.2265 1.016,-2.2772 1.5241,-3.1533 0.508,-0.8761 1.016,-1.5765 1.524,-2.1022 0.5081,-0.5258 1.0161,-0.8758 1.5241,-1.0511 0.5081,-0.1754 1.0161,-0.175 1.5241,0 0.5081,0.175 1.0161,0.5257 1.5241,1.0511 0.508,0.5253 1.0161,1.2264 1.5241,2.1022 0.508,0.8757 1.0161,1.9272 1.5241,3.1533 0.508,1.2261 1.0161,2.6279 1.5241,4.2043 0.508,1.5765 1.016,3.3287 1.5241,5.2555 0.508,1.9269 1.016,4.0294 1.5241,6.3066 0.508,2.2772 1.016,4.7301 1.5241,7.3577 0.508,2.6276 1.016,5.4308 1.5241,8.4088 0.508,2.9779 1.016,6.1315 1.524,9.4598 0.5081,3.3283 1.0161,6.83235 1.5241,10.51101 0.5081,3.678666 1.0161,7.53304 1.5241,11.56207 0.5081,4.02902 1.0161,8.23372 1.5241,12.61312 0.508,4.3794 1.0161,8.9345 1.5241,13.6643 0.508,4.7298 1.0161,9.6352 1.5241,14.7154"
       title="-x*x"
       clip-path="url(#clipPath593)"
       id="path576"
       transform="matrix(0.86915037,0,0,0.88206936,10.183725,59.732227)" /><path
       style="fill:none;stroke:#000000;stroke-width:0.42215274;stroke-linejoin:round;stroke-dasharray:1.68861095,1.68861095;stroke-dashoffset:0"
       d="m 27.3699,47.8973 c 0.508,-5.0802 1.016,-9.9853 1.5241,-14.7154 0.508,-4.7301 1.016,-9.2845 1.524,-13.6643 0.5081,-4.3797 1.0161,-8.5837 1.5241,-12.61312 0.5081,-4.02938 1.0161,-7.883054 1.5241,-11.56207 0.5081,-3.67901 1.0161,-7.18231 1.5241,-10.51101 0.508,-3.3286 1.0161,-6.4815 1.5241,-9.4598 0.508,-2.9783 1.0161,-5.7809 1.5241,-8.4088 0.508,-2.6279 1.0161,-5.0801 1.5241,-7.3577 0.508,-2.2775 1.0161,-4.3794 1.5241,-6.3066 0.508,-1.9272 1.016,-3.6786 1.5241,-5.2555 0.508,-1.5768 1.016,-2.9779 1.5241,-4.2043 0.508,-1.2265 1.016,-2.2772 1.5241,-3.1533 0.508,-0.8761 1.016,-1.5765 1.524,-2.1022 0.5081,-0.5258 1.0161,-0.8758 1.5241,-1.0511 0.5081,-0.1754 1.0161,-0.175 1.5241,0 0.5081,0.175 1.0161,0.5257 1.5241,1.0511 0.508,0.5253 1.0161,1.2264 1.5241,2.1022 0.508,0.8757 1.0161,1.9272 1.5241,3.1533 0.508,1.2261 1.0161,2.6279 1.5241,4.2043 0.508,1.5765 1.016,3.3287 1.5241,5.2555 0.508,1.9269 1.016,4.0294 1.5241,6.3066 0.508,2.2772 1.016,4.7301 1.5241,7.3577 0.508,2.6276 1.016,5.4308 1.5241,8.4088 0.508,2.9779 1.016,6.1315 1.524,9.4598 0.5081,3.3283 1.0161,6.83235 1.5241,10.51101 0.5081,3.678666 1.0161,7.53304 1.5241,11.56207 0.5081,4.02902 1.0161,8.23372 1.5241,12.61312 0.508,4.3794 1.0161,8.9345 1.5241,13.6643 0.508,4.7298 1.0161,9.6352 1.5241,14.7154"
       title="-x*x"
       clip-path="url(#clipPath593)"
       id="path619"
       transform="matrix(0.86915037,0,0,0.58104313,42.429267,55.915011)" /><path
       style="fill:none;stroke:#000000;stroke-width:0.3;stroke-linejoin:round;stroke-dasharray:1.2, 1.2;stroke-dashoffset:0"
       d="M 31.4106,23.753338 V 48.546993"
       id="path1313" /><path
       style="fill:none;stroke:#000000;stroke-width:0.3;stroke-linejoin:round;stroke-dasharray:1.2, 1.2;stroke-dashoffset:0"
       d="M 18.41246,23.753338 V 48.546993"
       id="path1315" /><path
       style="fill:none;stroke:#000000;stroke-width:0.3;stroke-linejoin:round;stroke-dasharray:1.2, 1.2;stroke-dashoffset:0"
       d="M 105.49392,23.753338 V 48.546993"
       id="path1317" /><path
       style="fill:none;stroke:#000000;stroke-width:0.3;stroke-linejoin:round;stroke-dasharray:1.2, 1.2;stroke-dashoffset:0"
       d="M 119.79973,23.753338 V 48.546993"
       id="path1319" /><path
       style="fill:none;stroke:#000000;stroke-width:0.5;stroke-linejoin:round;stroke-dasharray:none;stroke-dashoffset:0"
       d="M 18.41246,23.753338 V 13.142015"
       id="path1321" /><path
       style="fill:#000000;fill-opacity:1;stroke:none;stroke-width:0.499999;stroke-linejoin:round;stroke-dasharray:none;stroke-dashoffset:0"
       d="M 19.406719,13.142015 18.41246,9.4313894 17.418201,13.142015 Z"
       id="path1325" /><path
       style="fill:none;stroke:#000000;stroke-width:0.5;stroke-linejoin:round;stroke-dasharray:none;stroke-dashoffset:0"
       d="m 61.713421,23.753338 2.746413,10.249751"
       id="path1321-5" /><path
       style="fill:#000000;fill-opacity:1;stroke:none;stroke-width:0.499999;stroke-linejoin:round;stroke-dasharray:none;stroke-dashoffset:0"
       d="m 63.499454,34.260422 1.920761,3.326856 -10e-7,-3.841522 z"
       id="path1325-5" /><path
       style="fill:none;stroke:#000000;stroke-width:0.5;stroke-linejoin:round;stroke-dasharray:none;stroke-dashoffset:0"
       d="M 85.547638,19.618467 H 96.158961"
       id="path1321-4" /><path
       style="fill:#000000;fill-opacity:1;stroke:none;stroke-width:0.499999;stroke-linejoin:round;stroke-dasharray:none;stroke-dashoffset:0"
       d="m 96.158961,20.612726 3.710625,-0.994259 -3.710625,-0.994259 z"
       id="path1325-1" /><path
       style="fill:none;stroke:#000000;stroke-width:0.5;stroke-linejoin:round;stroke-dasharray:none;stroke-dashoffset:0"
       d="M 105.49393,23.753338 V 34.364661"
       id="path1321-8" /><path
       style="fill:#000000;fill-opacity:1;stroke:none;stroke-width:0.499999;stroke-linejoin:round;stroke-dasharray:none;stroke-dashoffset:0"
       d="m 106.48819,34.364661 -0.99426,3.710626 -0.99425,-3.710626 z"
       id="path1325-8" /><path
       style="fill:none;stroke:#000000;stroke-width:0.5;stroke-linejoin:round;stroke-dasharray:none;stroke-dashoffset:0"
       d="m 119.79973,23.753338 v -5.92481"
       id="path1321-3" /><path
       style="fill:#000000;fill-opacity:1;stroke:none;stroke-width:0.499999;stroke-linejoin:round;stroke-dasharray:none;stroke-dashoffset:0"
       d="m 120.79399,17.828528 -0.99426,-3.710626 -0.99426,3.710626 z"
       id="path1325-52" /><text
       xml:space="preserve"
       style="font-size:3.175px;line-height:0px;font-family:jost;-inkscape-font-specification:jost;fill:#000000;fill-opacity:1;stroke:none;stroke-width:0.499999;stroke-linejoin:round;stroke-dasharray:none;stroke-dashoffset:0"
       x="9.6767082"
       y="6.799849"
       id="text1566"><tspan
         sodipodi:role="line"
         id="tspan1564"
         style="stroke-width:0.5"
         x="9.6767082"
         y="6.799849">$\vec{v}_A$</tspan></text><text
       xml:space="preserve"
       style="font-size:3.175px;line-height:0px;font-family:jost;-inkscape-font-specification:jost;fill:#000000;fill-opacity:1;stroke:none;stroke-width:0.499999;stroke-linejoin:round;stroke-dasharray:none;stroke-dashoffset:0"
       x="65.39827"
       y="28.878214"
       id="text1566-7"><tspan
         sodipodi:role="line"
         id="tspan1564-4"
         style="stroke-width:0.5"
         x="65.39827"
         y="28.878214">$\vec{v}_C$</tspan></text><text
       xml:space="preserve"
       style="font-size:3.175px;line-height:0px;font-family:jost;-inkscape-font-specification:jost;fill:#000000;fill-opacity:1;stroke:none;stroke-width:0.499999;stroke-linejoin:round;stroke-dasharray:none;stroke-dashoffset:0"
       x="84.601997"
       y="16.237925"
       id="text1566-6"><tspan
         sodipodi:role="line"
         id="tspan1564-2"
         style="stroke-width:0.5"
         x="84.601997"
         y="16.237925">$\vec{v}_D$</tspan></text><text
       xml:space="preserve"
       style="font-size:3.175px;line-height:0px;font-family:jost;-inkscape-font-specification:jost;fill:#000000;fill-opacity:1;stroke:none;stroke-width:0.499999;stroke-linejoin:round;stroke-dasharray:none;stroke-dashoffset:0"
       x="107.43617"
       y="32.974224"
       id="text1566-2"><tspan
         sodipodi:role="line"
         id="tspan1564-1"
         style="stroke-width:0.5"
         x="107.43617"
         y="32.974224">$\vec{v}_E$</tspan></text><text
       xml:space="preserve"
       style="font-size:3.175px;line-height:0px;font-family:jost;-inkscape-font-specification:jost;fill:#000000;fill-opacity:1;stroke:none;stroke-width:0.499999;stroke-linejoin:round;stroke-dasharray:none;stroke-dashoffset:0"
       x="116.57418"
       y="10.569792"
       id="text1566-60"><tspan
         sodipodi:role="line"
         id="tspan1564-0"
         style="stroke-width:0.5"
         x="116.57418"
         y="10.569792">$\vec{v}_F$</tspan></text><text
       xml:space="preserve"
       style="font-size:3.175px;line-height:0px;font-family:jost;-inkscape-font-specification:jost;fill:#000000;fill-opacity:1;stroke:none;stroke-width:0.499999;stroke-linejoin:round;stroke-dasharray:none;stroke-dashoffset:0"
       x="22.971478"
       y="19.87681"
       id="text1566-5"><tspan
         sodipodi:role="line"
         id="tspan1564-9"
         style="stroke-width:0.5"
         x="22.971478"
         y="19.87681">$|\vec{v}_B|=0$</tspan></text></g></svg>
