<?xml version="1.0" encoding="UTF-8" standalone="no"?>
<!-- Created with Inkscape (http://www.inkscape.org/) -->

<svg
   width="70mm"
   height="40mm"
   viewBox="0 0 70 40"
   version="1.1"
   id="svg9819"
   inkscape:version="1.2.2 (b0a84865, 2022-12-01)"
   sodipodi:docname="dinamica-osc-1.svg"
   xmlns:inkscape="http://www.inkscape.org/namespaces/inkscape"
   xmlns:sodipodi="http://sodipodi.sourceforge.net/DTD/sodipodi-0.dtd"
   xmlns="http://www.w3.org/2000/svg"
   xmlns:svg="http://www.w3.org/2000/svg">
  <sodipodi:namedview
     id="namedview9821"
     pagecolor="#ffffff"
     bordercolor="#999999"
     borderopacity="1"
     inkscape:showpageshadow="0"
     inkscape:pageopacity="0"
     inkscape:pagecheckerboard="0"
     inkscape:deskcolor="#d1d1d1"
     inkscape:document-units="mm"
     showgrid="false"
     inkscape:zoom="1.4307099"
     inkscape:cx="78.282817"
     inkscape:cy="184.17431"
     inkscape:window-width="1390"
     inkscape:window-height="953"
     inkscape:window-x="91"
     inkscape:window-y="35"
     inkscape:window-maximized="0"
     inkscape:current-layer="layer1" />
  <defs
     id="defs9816" />
  <g
     inkscape:label="Layer 1"
     inkscape:groupmode="layer"
     id="layer1">
    <path
       d="m 12.452316,31.385251 c 0,-11.7889 9.55682,-21.3457 21.3457,-21.3457 11.7889,0 21.3457,9.55682 21.3457,21.3457"
       style="fill:none;fill-opacity:0.2;stroke:#000000;stroke-width:0.3;stroke-linecap:round;stroke-linejoin:round;stroke-miterlimit:4;stroke-dasharray:0.6, 1.2;stroke-dashoffset:0"
       id="path972"
       inkscape:export-filename="C:\Backup\Academic\My Notes\Resueltos F1\PNG\U2EJ52.png"
       inkscape:export-xdpi="300"
       inkscape:export-ydpi="300" />
    <path
       style="fill:none;stroke:#000000;stroke-width:0.3;stroke-linecap:round;stroke-linejoin:round;stroke-miterlimit:4;stroke-dasharray:none;stroke-opacity:1"
       d="M 4.8312405,31.875237 H 64.703005"
       id="path995"
       inkscape:export-filename="C:\Backup\Academic\My Notes\Resueltos F1\PNG\U2EJ52.png"
       inkscape:export-xdpi="300"
       inkscape:export-ydpi="300" />
    <path
       style="fill:none;stroke:#000000;stroke-width:0.3;stroke-linecap:round;stroke-linejoin:round;stroke-miterlimit:4;stroke-dasharray:none;stroke-opacity:1"
       d="M 33.798073,3.5649591 V 37.859698"
       id="path997"
       inkscape:export-filename="C:\Backup\Academic\My Notes\Resueltos F1\PNG\U2EJ52.png"
       inkscape:export-xdpi="300"
       inkscape:export-ydpi="300" />
    <circle
       cy="13.020094"
       cx="44.684101"
       id="circle5019-7"
       style="fill:#000000;fill-opacity:1;fill-rule:evenodd;stroke:none;stroke-width:0.3;stroke-linecap:round;stroke-linejoin:round;stroke-miterlimit:4;stroke-dasharray:none;stroke-dashoffset:0;stroke-opacity:1;paint-order:markers stroke fill"
       inkscape:export-xdpi="300"
       inkscape:export-ydpi="300"
       inkscape:export-filename="C:\Backup\Academic\My Notes\Resueltos F1\PNG\U2EJ52.png"
       r="1" />
    <path
       style="fill:none;stroke:#000000;stroke-width:0.3;stroke-linecap:round;stroke-linejoin:round;stroke-miterlimit:4;stroke-dasharray:none;stroke-opacity:1"
       d="M 33.798074,31.875237 44.684099,13.02009"
       id="path1029"
       inkscape:export-filename="C:\Backup\Academic\My Notes\Resueltos F1\PNG\U2EJ52.png"
       inkscape:export-xdpi="300"
       inkscape:export-ydpi="300" />
    <text
       xml:space="preserve"
       style="font-style:normal;font-variant:normal;font-weight:normal;font-stretch:normal;font-size:2.68645px;line-height:1.25;font-family:'Math Symbols';-inkscape-font-specification:'Math Symbols';letter-spacing:0px;word-spacing:0px;fill:#000000;fill-opacity:1;stroke:none;stroke-width:0.264583"
       x="35.072937"
       y="24.961752"
       id="text913-8"
       inkscape:export-filename="C:\Backup\Academic\My Notes\Resueltos F1\PNG\U2EJ52.png"
       inkscape:export-xdpi="300"
       inkscape:export-ydpi="300"
       transform="scale(0.99476535,1.0052622)"><tspan
         sodipodi:role="line"
         id="tspan911-2"
         x="35.072937"
         y="24.961752"
         style="font-size:4.29832px;stroke-width:0.264583">$\theta$</tspan></text>
    <path
       style="fill:none;stroke:#000000;stroke-width:0.2;stroke-linecap:butt;stroke-linejoin:miter;stroke-miterlimit:4;stroke-dasharray:none;stroke-opacity:1"
       d="m 39.643103,23.147618 c 0,0 -2.562489,-2.734558 -6.674307,-2.059827"
       id="path919-6"
       inkscape:connector-curvature="0"
       sodipodi:nodetypes="cc"
       inkscape:export-filename="C:\Backup\Academic\My Notes\Resueltos F1\PNG\U2EJ52.png"
       inkscape:export-xdpi="300"
       inkscape:export-ydpi="300" />
    <text
       inkscape:export-ydpi="300"
       inkscape:export-xdpi="300"
       id="text1027-66"
       y="26.441374"
       x="42.604893"
       style="font-style:normal;font-variant:normal;font-weight:normal;font-stretch:normal;font-size:4.61955px;line-height:1.25;font-family:'Math Symbols';-inkscape-font-specification:'Math Symbols';letter-spacing:0px;word-spacing:0px;fill:#000000;fill-opacity:1;stroke:none;stroke-width:0.264583"
       xml:space="preserve"
       inkscape:export-filename="C:\Backup\Academic\My Notes\Resueltos F1\PNG\U2EJ52.png"><tspan
         style="font-style:normal;font-variant:normal;font-weight:normal;font-stretch:normal;font-family:'CMU Classical Serif';-inkscape-font-specification:'CMU Classical Serif';stroke-width:0.264583"
         y="26.441374"
         x="42.604893"
         id="tspan1025-3"
         sodipodi:role="line">$R$<tspan
   style="font-size:3.0027px;baseline-shift:sub;stroke-width:0.264583"
   id="tspan1023-5" /></tspan></text>
    <path
       id="path2972-5"
       style="display:inline;fill:none;stroke:#000000;stroke-width:0.2;stroke-linecap:butt;stroke-linejoin:miter;stroke-miterlimit:4;stroke-dasharray:none;stroke-opacity:1"
       d="m 35.857618,29.962631 c 1.851975,1.30792 4.433516,-5.243359 4.433516,-5.243359 0,0 0.551172,-1.311035 2.267189,-0.803587 M 44.44478,15.08923 c 2.058677,0.949903 -2.324136,6.461238 -2.324136,6.461238 0,0 -0.859799,1.132839 0.437679,2.365217"
       inkscape:connector-curvature="0"
       inkscape:export-xdpi="300"
       inkscape:export-ydpi="300"
       inkscape:export-filename="C:\Backup\Academic\My Notes\Resueltos F1\PNG\U2EJ52.png" />
    <path
       d="m 12.470601,31.681161 c 0.6543,-0.1199 1.2867,-0.3236 1.8061,-0.5958 0.5194,-0.2723 0.9248,-0.4534 1.1753,-0.8149 0.2506,-0.3614 0.3232,-0.5801 0.2403,-0.9846 -0.0829,-0.4045 -0.3545,-0.6599 -0.7414,-1.0502 -0.387,-0.3903 -0.9244,-0.6683 -1.5014,-0.9836 -0.577,-0.3154 -1.2187,-0.5622 -1.8289,-0.719 -0.6103,-0.1561 -1.1867,-0.2233 -1.6432995,-0.204 -0.4566,0.0193 -0.8328,0.2893 -0.9862,0.4584 -0.1533,0.169 -0.1297,0.385 0.069,0.6023 0.1988,0.2171 0.573,0.4349 1.0702995,0.6074 0.4974,0.1726 1.117,0.2987 1.7712,0.3469 0.6543,0.048 1.3415,0.0167 1.9647,-0.1028 0.6231,-0.1194 1.1496,-0.1989 1.5765,-0.4586 0.4268,-0.2596 0.6651,-0.4273 0.7899,-0.8045 0.1248,-0.3772 0.0255,-0.6432 -0.1712,-1.0866 -0.1967,-0.4435 -0.5939,-0.7912 -1.0423,-1.2271 -0.4484,-0.436 -1.0053,-0.8347 -1.5843,-1.1525 -0.5791,-0.3178 -1.1786,-0.5532 -1.7068,-0.6857 -0.528,-0.1331 -0.9824,-0.1628 -1.2928,-0.0992 -0.3103,0.0637 -0.5386995,0.3883 -0.5184995,0.6019 0.0203,0.2135 0.2181995,0.4749 0.5688995,0.7324 0.3506,0.2578 0.8541,0.5102 1.4412,0.7076 0.5871,0.1974 1.2567,0.3388 1.9161,0.3906 0.6595,0.0517 1.2633,0.1015 1.816,-0.0087 0.5527,-0.1103 0.932,-0.1806 1.2432,-0.465 0.3112,-0.2843 0.385,-0.5058 0.3909,-0.9345 0.0059,-0.4287 -0.225,-0.7947 -0.5021,-1.2967 -0.2771,-0.502 -0.6917,-1.0102 -1.1762,-1.4636 -0.4846,-0.4532 -1.0148,-0.8759 -1.5341,-1.1978 -0.5191,-0.3221 -1.0858,-0.4394 -1.4974,-0.5167 -0.4119,-0.0771 -0.7197,-0.0366 -0.8728,0.1028 -0.153,0.1396 -0.2304,0.5269 -0.0512,0.8079 0.1793,0.281 0.5235,0.6045 0.9886,0.9108 0.4652,0.3063 1.0504,0.5943 1.6775,0.8093 0.6269,0.2151 1.2556,0.4046 1.8703,0.4688 0.6147,0.0642 1.1828,0.0183 1.6296,-0.1429 0.4467,-0.1611 0.5985,-0.1366 0.7943,-0.4838 0.1958,-0.3472 0.1361,-0.6751 0.0508,-1.1781 -0.0854,-0.5029 -0.3197,-1.0607 -0.6594,-1.6038 -0.3398,-0.5429 -0.7753,-1.0539 -1.229,-1.522 -0.4538,-0.4681 -0.941,-0.8554 -1.3821,-1.1167 -0.441,-0.2616 -0.9344,-0.2822 -1.213,-0.2687 -0.2786,0.0135 -0.4352,0.1567 -0.4391,0.3967 -0.0037,0.24 0.0597,0.6924 0.3674,1.0509 0.3078,0.3584 0.7572,0.745 1.2912,1.0921 0.5341,0.3468 1.1338,0.667 1.7425,0.9059 0.6088,0.2389 1.2225,0.38 1.7616,0.392 0.5391,0.012 0.9171,0.036 1.2567,-0.1896 0.3397,-0.2256 0.3287,-0.3242 0.431,-0.7609 0.1024,-0.4366 -0.0389,-0.8995 -0.1752,-1.4791 -0.1365,-0.5796 -0.3958,-1.1975 -0.7292,-1.7736 -0.3335,-0.5759 -0.74,-1.1085 -1.15,-1.53 -0.4101,-0.4214 -0.8217,-0.7306 -1.1648,-0.8925 -0.3432,-0.1619 -0.746,-0.0647 -0.8929,0.069 -0.1472,0.1333 -0.1658,0.4015 -0.0445,0.7544 0.1213,0.353 0.3835,0.7902 0.7588,1.2377 0.375,0.4478 0.8624,0.9047 1.4016,1.2949 0.5391,0.3902 1.1289,0.7119 1.6942,0.9092 0.5653,0.1972 1.0095,0.3799 1.4583,0.3271 0.4488,-0.0528 0.6914,-0.1266 0.9391,-0.4483 0.2477,-0.3218 0.2697,-0.6636 0.2899,-1.1985 0.0201,-0.5349 -0.1403,-1.0839 -0.315,-1.7125 -0.1746,-0.6285 -0.4391,-1.2654 -0.7308,-1.8341 -0.2916,-0.5689 -0.7185,-1.0084 -1.0627,-1.3401 -0.3443,-0.3318 -0.6674,-0.5207 -0.9109,-0.548 -0.2434,-0.0274 -0.5514,0.2016 -0.5844,0.4728 -0.033,0.2712 0.0576,0.6706 0.2697,1.1316 0.2121,0.461 0.5458,0.9824 0.9642,1.4801 0.4184,0.4977 0.9209,0.9699 1.4459,1.3404 0.525,0.3706 0.9796,0.7166 1.4741,0.8574 0.4944,0.1409 0.8122,0.2303 1.1809,0.0769 0.3688,-0.1534 0.5137,-0.3683 0.7018,-0.8003 0.1881,-0.432 0.1713,-0.9189 0.1723,-1.5341 10e-4,-0.6151 -0.129,-1.2676 -0.278,-1.9143 -0.149,-0.6465 -0.3758,-1.2608 -0.6337,-1.7594 -0.2579,-0.4986999 -0.6796,-0.8307999 -0.9533,-1.0317999 -0.2737,-0.2011 -0.5131,-0.2355 -0.6708,-0.1049 -0.1578,0.1307 -0.3775,0.4931 -0.326,0.9026 0.0514,0.4095999 0.2154,0.9287999 0.4804,1.4755999 0.2636,0.5474 0.6309,1.1194 1.0574,1.6285 0.4264,0.5092 0.8367,1.0027 1.3091,1.3341 0.4724,0.3313 0.8102,0.5936 1.2395,0.6381 0.4293,0.0446 0.6537,-0.01 0.9711,-0.2835 0.3174,-0.2736 0.4222,-0.6488 0.5911,-1.1826 0.169,-0.5337 0.1771,-1.148 0.1957,-1.8083 0.0033,-0.12 0.0038,-0.2408 0.0013,-0.3617"
       style="fill:none;fill-opacity:1;fill-rule:evenodd;stroke:#000000;stroke-width:0.2;stroke-linecap:round;stroke-linejoin:round;stroke-miterlimit:4;stroke-dasharray:none;stroke-dashoffset:0;stroke-opacity:1;paint-order:stroke fill markers"
       id="path6899"
       inkscape:export-filename="C:\Backup\Academic\My Notes\Resueltos F1\PNG\U2EJ52.png"
       inkscape:export-xdpi="300"
       inkscape:export-ydpi="300" />
    <path
       style="fill:none;fill-opacity:1;fill-rule:evenodd;stroke:#000000;stroke-width:0.2;stroke-linecap:round;stroke-linejoin:round;stroke-miterlimit:4;stroke-dasharray:none;stroke-dashoffset:0;stroke-opacity:1;paint-order:stroke fill markers"
       d="m 28.567227,11.37271 c -0.01536,-0.657397 -0.122471,-1.336525 -0.291778,-1.9433739 -0.169964,-0.606585 -0.399967,-1.139362 -0.644981,-1.525139 -0.245014,-0.385778 -0.666941,-0.576577 -0.890086,-0.624874 -0.223008,-0.04826 -0.39827,0.08018 -0.487107,0.360906 -0.08861,0.280715 -0.09014,0.713682 0.0091,1.230607 0.09922,0.51706 0.299818,1.1167 0.585176,1.7073539 0.285581,0.59064 0.656287,1.170122 1.071377,1.65008 0.414954,0.47992 0.747053,0.896132 1.18541,1.135988 0.43822,0.23982 0.702602,0.362344 1.091666,0.281827 0.389065,-0.08052 0.569777,-0.299516 0.855424,-0.691563 0.285732,-0.392098 0.388249,-0.909933 0.541549,-1.516209 0.153357,-0.606334 0.220222,-1.287965 0.205944,-1.9482939 -0.01433,-0.660415 -0.110214,-1.297298 -0.259566,-1.820982 -0.148732,-0.523812 -0.350211,-0.932184 -0.56049,-1.169198 -0.210316,-0.236877 -0.605628,-0.272378 -0.780511,-0.148087 -0.174746,0.12433 -0.302175,0.426417 -0.349827,0.858882 -0.04796,0.432529 -0.0148,0.994772 0.107801,1.601916 0.122597,0.607143 0.334941,1.2577339 0.61978,1.8546909 0.284977,0.596993 0.543749,1.144799 0.915535,1.568352 0.371873,0.423502 0.622404,0.716836 1.024302,0.844143 0.401811,0.127356 0.630536,0.08052 1.004751,-0.128721 0.374215,-0.20924 0.57573,-0.592205 0.871925,-1.083181 0.296195,-0.490976 0.529009,-1.10413 0.679415,-1.750419 0.150185,-0.6462749 0.251149,-1.3167929 0.270275,-1.9274699 0.0194,-0.610604 -0.162369,-1.16003 -0.301225,-1.555136 -0.139179,-0.395266 -0.328153,-0.641578 -0.525427,-0.704467 -0.197391,-0.06273 -0.571509,0.06392 -0.725262,0.359609 -0.153701,0.295779 -0.261757,0.755616 -0.294479,1.311553 -0.03266,0.556024 0.01052,1.206822 0.137875,1.857407 0.127169,0.6504619 0.277407,1.2896809 0.529158,1.8541269 0.251751,0.564446 0.575551,1.033485 0.938555,1.339825 0.362867,0.306304 0.417549,0.450017 0.816133,0.445985 0.398584,-0.004 0.652704,-0.219685 1.045665,-0.545057 0.392824,-0.325408 0.758743,-0.807218 1.059232,-1.372957 0.300264,-0.565725 0.525054,-1.1983799 0.70359,-1.8253449 0.178485,-0.627052 0.270296,-1.24263 0.276041,-1.755284 0.0061,-0.512717 -0.222808,-0.950314 -0.3738,-1.184838 -0.150991,-0.234525 -0.353306,-0.298545 -0.563102,-0.181921 -0.209697,0.116797 -0.569786,0.397902 -0.726406,0.843629 -0.156484,0.445761 -0.266615,1.028247 -0.300187,1.664262 -0.03329,0.635944 -0.01074,1.3153989 0.08672,1.9619979 0.09751,0.646687 0.28216,1.248717 0.541317,1.721591 0.259158,0.472874 0.427374,0.812232 0.792549,0.993534 0.365225,0.181388 0.445111,0.12258 0.874459,-0.0072 0.429307,-0.129619 0.75954,-0.483439 1.193338,-0.891277 0.433698,-0.408014 0.839166,-0.941524 1.171382,-1.518306 0.331995,-0.57677 0.58999,-1.1951089 0.75002,-1.7609289 0.159902,-0.565855 0.221865,-1.076914 0.190527,-1.454997 -0.03139,-0.37817 -0.316968,-0.678405 -0.506205,-0.738774 -0.18905,-0.0608 -0.43061,0.05716 -0.67558,0.338662 -0.245056,0.281548 -0.492583,0.727221 -0.692479,1.27599 -0.200309,0.548659 -0.352293,1.199211 -0.420615,1.8612719 -0.06837,0.661974 -0.05207,1.333606 0.05971,1.92182 0.111869,0.588165 0.175746,1.064203 0.445873,1.426475 0.270126,0.362272 0.455338,0.53547 0.857789,0.589134 0.402538,0.05361 0.709545,-0.09823 1.182882,-0.348189 0.473286,-0.250043 0.868535,-0.663453 1.325567,-1.129048"
       id="path1265"
       inkscape:export-filename="C:\Backup\Academic\My Notes\Resueltos F1\PNG\U2EJ52.png"
       inkscape:export-xdpi="300"
       inkscape:export-ydpi="300" />
    <text
       inkscape:export-ydpi="300"
       inkscape:export-xdpi="300"
       id="text1275"
       y="10.94515"
       x="44.416138"
       style="font-style:normal;font-variant:normal;font-weight:normal;font-stretch:normal;font-size:4.61955px;line-height:1.25;font-family:'Math Symbols';-inkscape-font-specification:'Math Symbols';letter-spacing:0px;word-spacing:0px;fill:#000000;fill-opacity:1;stroke:none;stroke-width:0.264583"
       xml:space="preserve"
       inkscape:export-filename="C:\Backup\Academic\My Notes\Resueltos F1\PNG\U2EJ52.png"><tspan
         style="font-style:normal;font-variant:normal;font-weight:normal;font-stretch:normal;font-family:'CMU Classical Serif';-inkscape-font-specification:'CMU Classical Serif';stroke-width:0.264583"
         y="10.94515"
         x="44.416138"
         id="tspan1273"
         sodipodi:role="line">$m$</tspan></text>
  </g>
</svg>
