<?xml version="1.0" encoding="UTF-8" standalone="no"?>
<!-- Created with Inkscape (http://www.inkscape.org/) -->

<svg
   width="170mm"
   height="80mm"
   viewBox="0 0 170 80"
   version="1.1"
   id="svg16095"
   inkscape:version="1.2.2 (b0a84865, 2022-12-01)"
   sodipodi:docname="dinamica-osc-3.svg"
   xmlns:inkscape="http://www.inkscape.org/namespaces/inkscape"
   xmlns:sodipodi="http://sodipodi.sourceforge.net/DTD/sodipodi-0.dtd"
   xmlns="http://www.w3.org/2000/svg"
   xmlns:svg="http://www.w3.org/2000/svg">
  <sodipodi:namedview
     id="namedview16097"
     pagecolor="#ffffff"
     bordercolor="#999999"
     borderopacity="1"
     inkscape:showpageshadow="0"
     inkscape:pageopacity="0"
     inkscape:pagecheckerboard="0"
     inkscape:deskcolor="#d1d1d1"
     inkscape:document-units="mm"
     showgrid="false"
     inkscape:zoom="0.71535494"
     inkscape:cx="371.84338"
     inkscape:cy="325.01348"
     inkscape:window-width="1390"
     inkscape:window-height="953"
     inkscape:window-x="26"
     inkscape:window-y="197"
     inkscape:window-maximized="0"
     inkscape:current-layer="layer1" />
  <defs
     id="defs16092" />
  <g
     inkscape:label="Layer 1"
     inkscape:groupmode="layer"
     id="layer1">
    <path
       style="fill:none;fill-opacity:1;fill-rule:evenodd;stroke:#000000;stroke-width:0.499999;stroke-linecap:round;stroke-linejoin:round;stroke-miterlimit:4;stroke-dasharray:none;stroke-dashoffset:0;stroke-opacity:1;paint-order:stroke fill markers"
       d="m 79.380182,22.922179 h -7.28911 c -0.0435,0.25017 -0.0922,0.498851 -0.14533,0.74446 -0.29288,1.35112 -0.72901,2.61242 -1.27106,3.60016 -0.54212,0.9878 -1.18858,1.70059 -1.87138,2.03333 -0.68276,0.33263 -1.40028,0.28654 -2.0737,-0.13397 -0.67347,-0.420449 -1.3016,-1.21192 -1.81853,-2.2615 -0.51682,-1.04957 -0.92169,-2.3527 -1.18094,-3.72157 -0.25932,-1.3688 -0.37572,-2.79889 -0.34952,-4.08289 0.0236,-1.28402 0.18316,-2.41887 0.43085,-3.23896 0.24769,-0.82011 0.58173,-1.32454 0.92917,-1.43881 0.34729,-0.11411 0.70595,0.1605 0.99877,0.78607 0.29295,0.6256 0.51871,1.59836 0.61887,2.77896 0.10018,1.18058 0.075,2.56431 -0.0982,3.95134 -0.17331,1.38709 -0.49378,2.77327 -0.9409,3.95735 -0.44725,1.18406 -1.01974,2.16356 -1.66047,2.79504 -0.64067,0.63164 -1.34773,0.91525 -2.0443,0.80759 -0.69651,-0.10745 -1.38094,-0.6035 -1.9792,-1.41821 -0.59829,-0.81474 -1.10976,-1.94398 -1.48447,-3.22542 -0.3748,-1.28147 -0.61355,-2.71051 -0.70595,-4.08042 -0.0924,-1.36986 -0.0394,-2.67686 0.12648,-3.73075 0.16588,-1.05391 0.44293,-1.85302 0.76672,-2.27983 0.32366,-0.42675 0.69201,-0.4822 1.0263,-0.15576 0.33447,0.32632 0.63359,1.03112 0.82828,2.01422 0.19466,0.98306 0.28546,2.23996 0.23146,3.5896 -0.0538,1.34962 -0.25086,2.78751 -0.58884,4.10526 -0.33792,1.31778 -0.81548,2.51218 -1.38942,3.40905 -0.57389,0.89685 -1.24245,1.49506 -1.93444,1.70637 -0.692,0.21121 -1.40579,0.0368 -2.06309,-0.5 -0.65725,-0.53682 -1.25689,-1.432429 -1.73709,-2.55883 -0.48002,-1.12635 -0.84036,-2.47878 -1.0529,-3.86219 -0.21272,-1.38334 -0.27865,-2.79336 -0.21255,-4.0254 0.0654,-1.2321 0.26218,-2.28329 0.53609,-3.00028 0.27368,-0.7169 0.62294,-1.10007 0.97193,-1.08937 0.34905,0.01 0.6964,0.40944 0.96616,1.14307 0.26974,0.73361 0.46079,1.79715 0.52059,3.03804 0.0598,1.24091 -0.0131,2.65444 -0.233,4.03621 -0.22001,1.38181 -0.58669,2.72798 -1.07265,3.84284 -0.48605,1.11478 -1.08999,1.99622 -1.75009,2.51494 -0.66012,0.51884 -1.37461,0.6751 -2.06545,0.44464 -0.69079,-0.23053 -1.35652,-0.8452 -1.9256,-1.75693 -0.56908,-0.91169 -1.04074,-2.11606 -1.37188,-3.43983 -0.33103,-1.32373 -0.52041,-2.76223 -0.56771,-4.10723 -0.0467,-1.34502 0.0493,-2.59298 0.24927,-3.56214 0.20005,-0.96919 0.5026,-1.65828 0.83847,-1.96547 0.33604,-0.30713 0.70417,-0.23381 1.02534,0.21158 0.32151,0.44539 0.59493,1.25941 0.75499,2.32595 0.16057,1.06651 0.20677,2.38097 0.10707,3.7538 -0.0998,1.37279 -0.34536,2.79959 -0.72686,4.07345 -0.38173,1.27385 -0.8983,2.3918 -1.50087,3.19058 -0.60258,0.7988 -1.28932,1.27781 -1.98637,1.36581 -0.69702,0.088 -1.40279,-0.21329 -2.04004,-0.8622 -0.63728,-0.64886 -1.20516,-1.64148 -1.64599,-2.83559 -0.44098,-1.19414 -0.7548,-2.58512 -0.92064,-3.97198 -0.1662,-1.38689 -0.18463,-2.76553 -0.0781,-3.93573 0.1066,-1.17021 0.33704,-2.12957 0.63303,-2.73765 0.29605,-0.60795 0.65575,-0.8647 1.00262,-0.73128 0.34664,0.13359 0.67821,0.65507 0.9217,1.4909 0.243,0.83579 0.39836,1.98167 0.41406,3.27294 0.0163,1.29127 -0.10443,2.72326 -0.37052,4.08878 -0.26641,1.36555 -0.6778,2.660891 -1.19998,3.69759 -0.52239,1.03667 -1.15432,1.81298 -1.82997,2.21478 -0.67564,0.40223 -1.3933,0.43015 -2.07427,0.0784 -0.681,-0.35172 -1.32396,-1.08014 -1.86079,-2.08153 -0.53681,-1.00144 -0.9671,-2.27133 -1.25258,-3.62674 -0.28548,-1.35546 -0.42729,-2.79195 -0.42929,-4.10128 -0.002,-1.30938 0.13454,-2.48848 0.36632,-3.36509 0.23116,-0.87668 0.55497,-1.45015 0.89925,-1.63539 0.34436,-0.18524 0.70769,0.0161 1.01206,0.57697 0.30408,0.56093 0.54864,1.4777 0.67143,2.61911 0.12396,1.14149 0.12552,2.50297 -0.0209,3.88801 -0.14629,1.38507 -0.43923,2.78938 -0.86328,4.00914 -0.42384,1.21975 -0.97677,2.25227 -1.60453,2.94663 -0.62777,0.69423 -1.32863,1.05026 -2.02656,1.01436 -0.69793,-0.036 -1.39131,-0.46169 -2.00488,-1.21745 -0.61359,-0.75576 -1.14657,-1.83746 -1.54596,-3.08979 -0.39947,-1.2524 -0.66606,-2.67078 -0.7852,-4.0501 -0.11862,-1.37925 -0.0919,-2.71557 0.053,-3.81458 0.1449,-1.09901 0.40629,-1.95877 0.72066,-2.4531 0.31466,-0.49416 0.68114,-0.6236 1.0212,-0.36737 0.34002,0.25638 0.6521,0.89553 0.86571,1.82682 0.2136,0.93134 0.3264,2.15035 0.3002,3.48171 -0.0273,1.33132 -0.19631,2.77037 -0.50854,4.1087 -0.3121,1.33835 -0.76601,2.57256 -1.32192,3.52283 -0.55592,0.95023 -1.21219,1.61529 -1.89941,1.8969 -0.68717,0.28166 -1.40357,0.18122 -2.0707,-0.28893 -0.66712,-0.47012 -1.2836,-1.30644 -1.7853,-2.38956 -0.5016,-1.08314 -0.8876,-2.40849 -1.12742,-3.78472 h -7.28911"
       id="path3890-5-2-1"
       inkscape:connector-curvature="0"
       inkscape:export-filename="C:\Users\mrmal\Desktop\ResorteColgado.png"
       inkscape:export-xdpi="300"
       inkscape:export-ydpi="300" />
    <rect
       inkscape:export-ydpi="300"
       inkscape:export-xdpi="300"
       y="8.756896"
       x="79.38018"
       height="28.33057"
       width="28.33057"
       id="rect1493"
       style="fill:#000000;fill-opacity:0.196078;fill-rule:evenodd;stroke:#000000;stroke-width:0.5;stroke-linecap:round;stroke-linejoin:round;stroke-miterlimit:4;stroke-dasharray:none;stroke-dashoffset:0;stroke-opacity:1;paint-order:markers stroke fill"
       inkscape:export-filename="C:\Backup\Academic\Apuntes MMR\Editting\LaTex\Super Apunte F1\PNG\Froz2.png" />
    <text
       inkscape:export-ydpi="300"
       inkscape:export-xdpi="300"
       id="text1497"
       y="23.620665"
       x="89.398834"
       style="font-style:normal;font-variant:normal;font-weight:normal;font-stretch:normal;font-size:2.35472px;line-height:1.25;font-family:'Math Symbols';-inkscape-font-specification:'Math Symbols';letter-spacing:0px;word-spacing:0px;fill:#000000;fill-opacity:1;stroke:none;stroke-width:0.264583"
       xml:space="preserve"
       inkscape:export-filename="C:\Backup\Academic\Apuntes MMR\Editting\LaTex\Super Apunte F1\PNG\Froz2.png"><tspan
         style="font-style:normal;font-variant:normal;font-weight:normal;font-stretch:normal;font-family:'CMU Classical Serif';-inkscape-font-specification:'CMU Classical Serif';stroke-width:0.264583"
         y="23.620665"
         x="89.398834"
         id="tspan1495"
         sodipodi:role="line">$m_1$</tspan></text>
    <path
       inkscape:export-ydpi="300"
       inkscape:export-xdpi="300"
       inkscape:connector-curvature="0"
       id="path1499"
       d="M 2.6807098,77.410959 H 142.89902 V 37.087452 H 14.540482 V 5.0929472 H 2.6807096 Z"
       style="fill:#000000;fill-opacity:0.1;stroke:#000000;stroke-width:0.3;stroke-linecap:butt;stroke-linejoin:miter;stroke-miterlimit:4;stroke-dasharray:none;stroke-opacity:1"
       inkscape:export-filename="C:\Backup\Academic\Apuntes MMR\Editting\LaTex\Super Apunte F1\PNG\Froz2.png" />
    <rect
       inkscape:export-filename="C:\Backup\Academic\Apuntes MMR\Editting\LaTex\Super Apunte F1\PNG\Froz2.png"
       style="fill:#000000;fill-opacity:0.196078;fill-rule:evenodd;stroke:#000000;stroke-width:0.5;stroke-linecap:round;stroke-linejoin:round;stroke-miterlimit:4;stroke-dasharray:none;stroke-dashoffset:0;stroke-opacity:1;paint-order:markers stroke fill"
       id="rect1156"
       width="16.918161"
       height="16.918161"
       x="148.12755"
       y="47.228081"
       inkscape:export-xdpi="300"
       inkscape:export-ydpi="300" />
    <text
       inkscape:export-ydpi="300"
       inkscape:export-xdpi="300"
       id="text16460"
       y="56.385643"
       x="152.44"
       style="font-style:normal;font-variant:normal;font-weight:normal;font-stretch:normal;font-size:2.35472px;line-height:1.25;font-family:'Math Symbols';-inkscape-font-specification:'Math Symbols';letter-spacing:0px;word-spacing:0px;fill:#000000;fill-opacity:1;stroke:none;stroke-width:0.264583"
       xml:space="preserve"
       inkscape:export-filename="C:\Backup\Academic\Apuntes MMR\Editting\LaTex\Super Apunte F1\PNG\Froz2.png"><tspan
         style="font-style:normal;font-variant:normal;font-weight:normal;font-stretch:normal;font-family:'CMU Classical Serif';-inkscape-font-specification:'CMU Classical Serif';stroke-width:0.264583"
         y="56.385643"
         x="152.44"
         id="tspan16458"
         sodipodi:role="line">$m_2$</tspan></text>
    <path
       style="fill:#000000;fill-opacity:0.1;stroke:#000000;stroke-width:0.499999;stroke-linecap:round;stroke-linejoin:round;stroke-opacity:1"
       d="m 107.6884,22.922179 h 44.94255"
       id="path21355" />
    <circle
       style="fill:#000000;fill-opacity:0.1;stroke:#000000;stroke-width:0.499999;stroke-linecap:round;stroke-linejoin:round;stroke-opacity:1"
       id="path21461"
       cx="152.63095"
       cy="26.877859"
       r="3.9556813" />
    <path
       style="fill:#000000;fill-opacity:0.1;stroke:#000000;stroke-width:0.499999;stroke-linecap:round;stroke-linejoin:round;stroke-opacity:1"
       d="m 152.63095,26.877858 -9.73193,10.209594 h -9.05969 z"
       id="path21472" />
    <path
       style="fill:#000000;fill-opacity:0.1;stroke:#000000;stroke-width:0.499999;stroke-linecap:round;stroke-linejoin:round;stroke-opacity:1"
       d="M 156.58663,26.877858 V 47.228079"
       id="path21474" />
  </g>
</svg>
