<?xml version="1.0" encoding="UTF-8" standalone="no"?>
<!-- Created with Inkscape (http://www.inkscape.org/) -->

<svg
   width="130mm"
   height="80mm"
   viewBox="0 0 130 80"
   version="1.1"
   id="svg5"
   sodipodi:docname="dinamica-tension-3.svg"
   inkscape:version="1.2.2 (b0a84865, 2022-12-01)"
   xmlns:inkscape="http://www.inkscape.org/namespaces/inkscape"
   xmlns:sodipodi="http://sodipodi.sourceforge.net/DTD/sodipodi-0.dtd"
   xmlns="http://www.w3.org/2000/svg"
   xmlns:svg="http://www.w3.org/2000/svg">
  <sodipodi:namedview
     id="namedview181"
     pagecolor="#ffffff"
     bordercolor="#999999"
     borderopacity="1"
     inkscape:showpageshadow="0"
     inkscape:pageopacity="0"
     inkscape:pagecheckerboard="0"
     inkscape:deskcolor="#d1d1d1"
     inkscape:document-units="mm"
     showgrid="false"
     inkscape:zoom="1.0116647"
     inkscape:cx="261.94451"
     inkscape:cy="125.04143"
     inkscape:window-width="1390"
     inkscape:window-height="953"
     inkscape:window-x="49"
     inkscape:window-y="49"
     inkscape:window-maximized="0"
     inkscape:current-layer="svg5" />
  <defs
     id="defs2" />
  <rect
     y="38.324863"
     x="58.046841"
     height="28.33057"
     width="28.33057"
     id="rect1493-7-6"
     style="fill:#000000;fill-opacity:0.196078;fill-rule:evenodd;stroke:#000000;stroke-width:0.5;stroke-linecap:round;stroke-linejoin:round;stroke-miterlimit:4;stroke-dasharray:none;stroke-dashoffset:0;stroke-opacity:1;paint-order:markers stroke fill"
     transform="rotate(-15)" />
  <path
     style="fill:#000000;fill-opacity:0.0980392;stroke:#000000;stroke-width:0.5;stroke-linecap:butt;stroke-linejoin:miter;stroke-miterlimit:4;stroke-dasharray:none;stroke-opacity:1"
     d="M 5.5479452,70.232984 111.2005,41.923474 v 28.30951 z"
     id="path900-7" />
  <path
     id="path4648-8"
     d="m 97.019613,28.345464 9.734447,-2.51939"
     style="fill:none;stroke:#000000;stroke-width:0.5;stroke-linecap:butt;stroke-linejoin:miter;stroke-miterlimit:4;stroke-dasharray:none;stroke-opacity:1" />
  <g
     transform="matrix(-0.25881905,-0.96592583,-0.96592583,0.25881905,376.32776,32.037844)"
     id="g3069-9-8-0-7">
    <path
       style="fill:none;stroke:#000000;stroke-width:0.264583px;stroke-linecap:butt;stroke-linejoin:miter;stroke-opacity:1"
       d="m 75.770909,248.29607 v 10.48439"
       id="path3065-6-5-3-0" />
    <path
       style="fill:#000000;fill-opacity:1;stroke:#000000;stroke-width:0.265;stroke-linecap:round;stroke-linejoin:round;stroke-miterlimit:4;stroke-dasharray:none;stroke-opacity:1"
       d="m 75.770909,248.29608 h -1.31852 c 0,0 1.0788,-0.67126 1.31852,-5.13025 0.23972,4.45899 1.31852,5.13025 1.31852,5.13025 z"
       id="path3067-4-5-8-3" />
  </g>
  <g
     transform="matrix(-0.25881905,-0.96592583,-0.96592583,0.25881905,340.43485,19.360869)"
     id="g3069-9-8-0-7-2">
    <path
       style="fill:none;stroke:#000000;stroke-width:0.264583px;stroke-linecap:butt;stroke-linejoin:miter;stroke-opacity:1"
       d="m 75.770909,248.29607 v 10.48439"
       id="path3065-6-5-3-0-9" />
    <path
       style="fill:#000000;fill-opacity:1;stroke:#000000;stroke-width:0.265;stroke-linecap:round;stroke-linejoin:round;stroke-miterlimit:4;stroke-dasharray:none;stroke-opacity:1"
       d="m 75.770909,248.29608 h -1.31852 c 0,0 1.0788,-0.67126 1.31852,-5.13025 0.23972,4.45899 1.31852,5.13025 1.31852,5.13025 z"
       id="path3067-4-5-8-3-7" />
  </g>
  <circle
     cy="25.826092"
     cx="106.75407"
     id="circle5019-2"
     style="fill:#000000;fill-opacity:1;fill-rule:evenodd;stroke:none;stroke-width:0.3;stroke-linecap:round;stroke-linejoin:round;stroke-miterlimit:4;stroke-dasharray:none;stroke-dashoffset:0;stroke-opacity:1;paint-order:markers stroke fill"
     r="1.5" />
  <path
     style="fill:none;stroke:#000000;stroke-width:0.500001;stroke-linecap:butt;stroke-linejoin:miter;stroke-miterlimit:4;stroke-dasharray:none;stroke-opacity:1"
     d="m 53.615974,40.099984 16.111711,-4.26669"
     id="path1017-6" />
  <path
     style="fill:none;stroke:#000000;stroke-width:0.2;stroke-linecap:butt;stroke-linejoin:miter;stroke-miterlimit:4;stroke-dasharray:none;stroke-opacity:1"
     d="m 58.109644,54.160224 c 0,0 6.08602,7.71952 2.64644,18.05997"
     id="path919-3" />
  <flowRoot
     xml:space="preserve"
     id="flowRoot1027-6-5-1-5-15-7-4-3-4"
     style="font-style:normal;font-variant:normal;font-weight:normal;font-stretch:normal;font-size:26.6667px;line-height:1.25;font-family:'Math Symbols';-inkscape-font-specification:'Math Symbols';letter-spacing:0px;word-spacing:0px;fill:#000000;fill-opacity:1;stroke:none"
     transform="matrix(0.26458333,0,0,0.26458333,-2.0490932,-44.519336)"><flowRegion
       id="flowRegion1023-6-9-7-1-2-4-8-9-0"><rect
         id="rect1021-2-9-4-3-2-1-7-4-0"
         width="79.846931"
         height="62.55191"
         x="150.68999"
         y="314.73935" /></flowRegion><flowPara
       id="flowPara1025-1-57-2-9-2-3-2-9-6"
       style="font-style:normal;font-variant:normal;font-weight:normal;font-stretch:normal;font-size:32px;font-family:'CMU Serif';-inkscape-font-specification:'CMU Serif'">2</flowPara></flowRoot>
  <flowRoot
     xml:space="preserve"
     id="flowRoot1027-6-5-1-5-15-7-4-3-4-5"
     style="font-style:normal;font-variant:normal;font-weight:normal;font-stretch:normal;font-size:26.6667px;line-height:1.25;font-family:'Math Symbols';-inkscape-font-specification:'Math Symbols';letter-spacing:0px;word-spacing:0px;fill:#000000;fill-opacity:1;stroke:none"
     transform="matrix(0.26458333,0,0,0.26458333,41.317352,-56.273856)"><flowRegion
       id="flowRegion1023-6-9-7-1-2-4-8-9-0-9"><rect
         id="rect1021-2-9-4-3-2-1-7-4-0-0"
         width="79.846931"
         height="62.55191"
         x="150.68999"
         y="314.73935" /></flowRegion><flowPara
       id="flowPara1025-1-57-2-9-2-3-2-9-6-7"
       style="font-style:normal;font-variant:normal;font-weight:normal;font-stretch:normal;font-size:32px;font-family:'CMU Serif';-inkscape-font-specification:'CMU Serif'">1</flowPara></flowRoot>
  <path
     id="path8610"
     style="fill:#000000;fill-opacity:1;stroke:#000000;stroke-width:0.5;stroke-linecap:round;stroke-linejoin:round"
     d="m 81.299498,47.799144 a 2.1515198,2.1515198 0 0 1 -2.15152,2.15151 2.1515198,2.1515198 0 0 1 -2.151525,-2.15153 2.1515198,2.1515198 0 0 1 2.151522,-2.15151 2.1515198,2.1515198 0 0 1 2.151523,2.15153 z" />
  <path
     id="path8610-7"
     style="fill:#000000;fill-opacity:1;stroke:#000000;stroke-width:0.5;stroke-linecap:round;stroke-linejoin:round"
     d="m 97.600203,43.431384 a 2.1515198,2.1515198 0 0 1 -2.15152,2.15151 2.1515198,2.1515198 0 0 1 -2.15152,-2.15153 2.1515198,2.1515198 0 0 1 2.15152,-2.15151 2.1515198,2.1515198 0 0 1 2.15152,2.15153 z" />
  <rect
     y="38.445164"
     x="13.079842"
     height="28.33057"
     width="28.33057"
     id="rect1493-7-6-6"
     style="fill:#000000;fill-opacity:0.196078;fill-rule:evenodd;stroke:#000000;stroke-width:0.5;stroke-linecap:round;stroke-linejoin:round;stroke-miterlimit:4;stroke-dasharray:none;stroke-dashoffset:0;stroke-opacity:1;paint-order:markers stroke fill"
     transform="rotate(-15)" />
  <path
     id="path8610-2"
     style="fill:#000000;fill-opacity:1;stroke:#000000;stroke-width:0.5;stroke-linecap:round;stroke-linejoin:round"
     d="m 37.895851,59.553674 a 2.1515198,2.1515198 0 0 1 -2.15152,2.15151 2.1515198,2.1515198 0 0 1 -2.151525,-2.15153 2.1515198,2.1515198 0 0 1 2.151522,-2.15151 2.1515198,2.1515198 0 0 1 2.151523,2.15153 z" />
  <path
     id="path8610-7-3"
     style="fill:#000000;fill-opacity:1;stroke:#000000;stroke-width:0.5;stroke-linecap:round;stroke-linejoin:round"
     d="m 54.196561,55.185914 a 2.1515198,2.1515198 0 0 1 -2.151521,2.15151 2.1515198,2.1515198 0 0 1 -2.151524,-2.15153 2.1515198,2.1515198 0 0 1 2.151521,-2.15151 2.1515198,2.1515198 0 0 1 2.151524,2.15153 z" />
  <text
     xml:space="preserve"
     style="font-size:3.175px;line-height:0px;font-family:jost;-inkscape-font-specification:jost;fill:#000000;stroke-width:0.499999;stroke-linejoin:round"
     x="109.95896"
     y="17.938356"
     id="text4701"><tspan
       id="tspan4699"
       style="stroke-width:0.5"
       x="109.95896"
       y="17.938356">$\vec{F}$</tspan></text>
  <text
     xml:space="preserve"
     style="font-size:3.175px;line-height:0px;font-family:jost;-inkscape-font-specification:jost;fill:#000000;stroke-width:0.499999;stroke-linejoin:round"
     x="42.330757"
     y="64.967377"
     id="text4701-5"><tspan
       id="tspan4699-7"
       style="stroke-width:0.5"
       x="42.330757"
       y="64.967377">$\ang{30}$</tspan></text>
  <text
     xml:space="preserve"
     style="font-size:3.175px;line-height:0px;font-family:jost;-inkscape-font-specification:jost;fill:#000000;stroke-width:0.499999;stroke-linejoin:round"
     x="69.885559"
     y="8.5151262"
     id="text4701-0"><tspan
       id="tspan4699-2"
       style="stroke-width:0.5"
       x="69.885559"
       y="8.5151262">$\vec{v}$</tspan></text>
</svg>
