<?xml version="1.0" encoding="UTF-8" standalone="no"?>
<!-- Created with Inkscape (http://www.inkscape.org/) -->

<svg
   width="120mm"
   height="90mm"
   viewBox="0 0 120 90"
   version="1.1"
   id="svg5"
   xml:space="preserve"
   inkscape:version="1.2.2 (b0a84865, 2022-12-01)"
   sodipodi:docname="mate-trig-5.svg"
   xmlns:inkscape="http://www.inkscape.org/namespaces/inkscape"
   xmlns:sodipodi="http://sodipodi.sourceforge.net/DTD/sodipodi-0.dtd"
   xmlns="http://www.w3.org/2000/svg"
   xmlns:svg="http://www.w3.org/2000/svg"><sodipodi:namedview
     id="namedview7"
     pagecolor="#ffffff"
     bordercolor="#999999"
     borderopacity="1"
     inkscape:showpageshadow="0"
     inkscape:pageopacity="0"
     inkscape:pagecheckerboard="0"
     inkscape:deskcolor="#d1d1d1"
     inkscape:document-units="mm"
     showgrid="false"
     inkscape:zoom="1.0252604"
     inkscape:cx="153.13183"
     inkscape:cy="60.960122"
     inkscape:window-width="1920"
     inkscape:window-height="953"
     inkscape:window-x="1512"
     inkscape:window-y="25"
     inkscape:window-maximized="1"
     inkscape:current-layer="layer1" /><defs
     id="defs2" /><g
     inkscape:label="Layer 1"
     inkscape:groupmode="layer"
     id="layer1"><path
       style="fill:#969696;fill-opacity:0.5;stroke-width:0.3;stroke-linecap:round"
       d="m 118.27864,10.541072 c -0.56723,0.159329 -1.11994,0.145529 -1.69996,0.261533 -1.34129,0.268259 0.0784,0.02877 -1.96149,0.130766 -0.56762,0.02838 -1.13937,0.224199 -1.69997,0.130767 -1.26623,-0.211039 -3.98601,-0.350282 -5.09988,0.392299 -0.0363,0.02418 0.0195,0.09178 0,0.130766 -0.27211,0.544218 0.009,-0.139794 -0.26153,0.130766 -0.0308,0.03082 0.0195,0.09178 0,0.130767 -0.0703,0.140569 -0.16724,0.266569 -0.26154,0.392299 -0.34692,0.46256 -1.06085,0.724736 -1.56919,0.915364 -0.41066,0.153997 -0.87899,0.306563 -1.30767,0.392299 -0.12822,0.02565 -0.27533,-0.05848 -0.39229,0 -0.0551,0.02757 -0.071,0.115815 -0.13077,0.130766 -0.12686,0.03172 -0.26331,-0.0215 -0.3923,0 -0.35005,0.05834 -1.00265,0.239792 -1.30766,0.392299 -0.54422,0.272109 0.13979,-0.009 -0.13077,0.261533 -0.40565,0.405652 -0.20174,-0.280242 -0.52306,0.523065 -0.0324,0.08094 0.0276,0.178829 0,0.261533 -0.0434,0.130222 -0.21813,0.262077 -0.26154,0.392299 -0.0553,0.165925 -0.13507,0.65814 -0.26153,0.784597 -0.0308,0.03082 -0.0918,-0.01949 -0.13077,0 -0.11027,0.05514 -0.14457,0.222546 -0.26153,0.261533 -0.0827,0.02757 -0.18356,-0.03899 -0.26153,0 -0.039,0.01949 0.0308,0.09994 0,0.130766 -0.0484,0.0484 -0.655416,0 -0.784596,0 -1.19453,0 -2.28654,-0.307435 -3.39992,-0.784597 -0.17918,-0.07679 -0.33563,-0.20798 -0.52307,-0.261533 -0.12574,-0.03592 -0.26544,0.03171 -0.3923,0 -0.178732,-0.04468 -0.197523,-0.197524 -0.261531,-0.261533 -0.06164,-0.06164 -0.19989,0.06164 -0.261532,0 -0.03082,-0.03082 0.0195,-0.09178 0,-0.130766 -0.151477,-0.302951 -0.522351,-1.176659 -0.915366,-1.307663 -0.752446,-0.250816 -2.532372,0.245595 -3.269157,0 -0.47947,-0.159824 -0.782077,-0.06507 -1.307664,-0.130767 -0.136773,-0.0171 -0.256333,-0.108105 -0.392297,-0.130766 -0.21498,-0.03583 -0.442397,0.05286 -0.653833,0 -0.09456,-0.02364 -0.164066,-0.130766 -0.261533,-0.130766 -0.243372,0 -0.718346,0.29379 -0.915363,0.392299 -0.02265,0.01132 -0.437531,0.54568 -0.653833,0.653831 -0.69437,0.347186 -2.051368,0.396345 -2.484559,1.046131 -0.07254,0.108804 0.04135,0.268243 0,0.392299 -0.0195,0.05848 -0.111273,0.07229 -0.130765,0.130766 -0.05514,0.165408 0.05513,0.357658 0,0.523065 -0.144616,0.433845 -0.534951,0.891587 -0.915366,1.176897 -0.975323,0.731494 -1.958184,0.348159 -3.007625,0.523066 -0.494776,0.08246 -1.083984,0.1229 -1.569196,0.261532 -0.443034,0.126582 -0.92448,0.46224 -1.307663,0.653832 -0.348615,0.174308 -0.824624,2.39382 -0.915363,2.484559 -0.03082,0.03082 -0.09995,-0.03082 -0.130768,0 -0.03082,0.03082 0.03082,0.09995 0,0.130768 -0.255574,0.255574 -0.630732,0.440357 -0.915363,0.65383 -0.170511,0.127884 -1.025993,1.081307 -1.176898,1.307664 -0.349052,0.523578 -0.573254,1.750152 -1.046131,2.223029 -0.03082,0.03082 -0.0959,-0.02614 -0.130765,0 -0.307951,0.230963 -0.56515,0.537091 -0.915366,0.65383 -0.0827,0.02757 -0.178826,-0.02757 -0.261532,0 -0.208355,0.06945 -0.41015,0.331378 -0.653831,0.392298 -0.234108,0.05853 -0.849336,0.03237 -1.046131,0.130768 -0.05514,0.02757 -0.06912,0.130765 -0.130767,0.130765 -0.481621,0 -1.496449,-0.820971 -2.092259,-0.523066 -0.03899,0.0195 0.03082,0.09995 0,0.130768 -0.06164,0.06164 -0.19989,-0.06164 -0.261533,0 -0.03082,0.03082 0.03082,0.09994 0,0.130765 -0.27056,0.27056 0.01058,-0.413451 -0.261532,0.130768 -0.484222,0.968443 -0.918599,1.966023 -1.569197,2.876859 -0.14773,0.206822 -0.212579,0.47411 -0.3923,0.653831 -0.06892,0.06892 -0.174355,0.08718 -0.261533,0.130767 -0.08718,0.08718 -0.174355,0.174355 -0.261532,0.261533 -0.04359,0.04359 -0.08718,0.08718 -0.130765,0.130765 -0.04359,0.08718 -0.06185,0.192614 -0.130768,0.261533 -0.510344,0.510346 -0.07023,-0.03027 -0.392298,0.130767 -0.279087,0.139544 -0.97192,0.903595 -1.176898,1.176896 -0.475184,0.633579 -0.576694,1.414925 -0.915363,2.092261 -0.07632,0.152644 -0.329144,0.234411 -0.3923,0.392298 -0.322525,1.290101 0.107349,-0.04815 -0.392298,0.784598 -0.257789,0.429649 -0.491035,1.08081 -0.653831,1.569196 -0.02757,0.0827 0.03899,0.18356 0,0.261533 -0.220826,0.44165 -0.82895,0.82895 -1.176898,1.176898 -0.587682,0.587682 -1.037643,1.203222 -1.699961,1.699962 -0.412755,0.309565 -0.163261,-0.09827 -0.653833,0.3923 -0.475941,0.475938 0.139025,0.09188 -0.261533,0.392298 -0.363707,0.27278 -0.861097,0.468799 -1.176896,0.784598 -0.06892,0.06892 -0.06185,0.192614 -0.130767,0.261532 -0.06892,0.06892 -0.192612,0.06185 -0.261533,0.130768 -0.05663,0.05663 -0.205266,0.438669 -0.261533,0.523063 -0.117721,0.176583 -0.265123,0.176749 -0.392297,0.261532 -0.08718,0.08718 -0.174355,0.174356 -0.261533,0.261533 0,0.04359 0.03082,0.09995 0,0.130768 -0.0548,0.0548 -0.313047,0.09114 -0.3923,0.130765 -0.544216,0.27211 0.139795,-0.009 -0.130765,0.261532 -0.03082,0.03082 -0.09994,-0.03082 -0.130768,0 -0.02477,0.02476 -0.307472,1.731788 -0.261533,1.961497 0.02703,0.135162 0.103735,0.257135 0.130768,0.392298 0.09032,0.45159 -0.04837,0.895654 -0.130768,1.307663 -0.05129,0.256455 0.043,0.526624 0,0.784598 -0.119816,0.718913 -0.622863,1.671296 -0.915363,2.353794 -0.09247,0.215755 -0.187304,0.431144 -0.261532,0.653831 -0.02757,0.08271 0.06164,0.19989 0,0.261532 -0.06892,0.06892 -0.192612,0.06185 -0.261533,0.130768 -0.06892,0.06892 -0.05466,0.200644 -0.130765,0.261533 -0.947494,0.757994 -2.423594,0.677098 -3.530693,1.04613 -0.445373,0.148458 -0.854048,0.402101 -1.307663,0.523066 -0.210585,0.05615 -0.437571,-0.02703 -0.653831,0 -0.27355,0.03419 -0.512669,0.216209 -0.784598,0.261532 -0.128987,0.02151 -0.264072,-0.02564 -0.3923,0 -0.307435,0.06149 -0.610198,0.316008 -0.915363,0.392298 -0.08457,0.02114 -0.183557,-0.03899 -0.261533,0 -0.03899,0.0195 0.03082,0.09995 0,0.130768 -0.05252,0.05252 -0.318341,-0.02466 -0.392297,0 -0.58845,0.196149 0.130765,0.130765 -0.784598,0.392298 -0.125736,0.03592 -0.266142,-0.03441 -0.392301,0 -1.041006,0.283911 -1.828988,0.768191 -2.746092,1.307663 -0.3923,0.217945 -0.784598,0.435888 -1.176898,0.653833 -0.08718,0.08718 -0.155813,0.198101 -0.261533,0.261533 -0.172109,0.103264 -0.419454,0.05431 -0.523065,0.261532 -0.09904,0.198078 0.130768,2.003748 0.130768,2.353792 0,0.130768 0,0.261533 0,0.3923 -0.04359,0.04359 -0.118677,0.07032 -0.130768,0.130765 -0.0503,0.251476 0.05029,0.533125 0,0.784598 -0.235111,1.175565 -0.530738,2.376821 -0.915363,3.530693 -0.08508,0.255235 -0.176453,0.52936 -0.261533,0.784598 -0.02757,0.0827 0.06164,0.199887 0,0.261533 -0.03082,0.03082 -0.09994,-0.03082 -0.130768,0 -0.06164,0.06164 0.03899,0.183557 0,0.261532 -0.14756,0.295124 -0.572486,0.537136 -0.784595,0.784598 -0.399359,0.465918 -0.689131,0.962427 -1.046131,1.438429 -0.181141,0.241519 -0.486492,0.402823 -0.653833,0.65383 -0.07963,0.119454 -0.111619,0.317344 -0.261532,0.3923 -0.403387,0.201692 -0.673352,0.617141 -1.046131,0.915364 -0.810461,0.648372 -0.04269,-0.01514 -0.653831,0.3923 -0.153873,0.102582 -0.244353,0.281339 -0.3923,0.392298 -0.155948,0.116961 -0.360868,0.153402 -0.523065,0.261532 -0.102582,0.06839 -0.158951,0.193146 -0.261533,0.261533 -0.114689,0.07646 -0.29483,0.0333 -0.392298,0.130768 -0.06892,0.06892 -0.06185,0.192611 -0.130767,0.261532 -0.06892,0.06892 -0.185423,0.06988 -0.261533,0.130765 -0.328329,0.262665 -1.132152,1.154526 -1.438428,1.307664 -0.03899,0.0195 -0.09994,-0.03082 -0.130768,0 -0.03082,0.03082 0.03082,0.09994 0,0.130767 -0.06892,0.06892 -0.192611,0.06185 -0.261533,0.130765 -0.07587,0.07587 0.157366,1.826266 0.130768,2.092262 -0.144037,1.440376 -0.797491,3.687241 -1.438429,4.969121 -0.06275,0.125502 0.04186,0.397483 0,0.523065 -0.05163,0.154898 -0.318777,0.245256 -0.3923,0.392298 -0.086,0.171995 -0.06767,0.333785 -0.130765,0.523065 -0.136057,0.408165 -0.08718,-0.04359 -0.261533,0.130768 -0.11113,0.11113 -0.174355,0.261533 -0.261532,0.392298 -0.198766,0.298148 -0.341464,0.707117 -0.653833,0.915365 -0.0678,0.0452 -0.339577,0.07805 -0.392298,0.130765 -0.0785,0.07849 -0.107,0.289277 -0.261533,0.392298 -1.018558,0.67904 -2.139386,1.248056 -3.269158,1.699964 -0.145921,0.05837 -0.243203,0.211833 -0.3923,0.261533 -0.496612,0.165536 -1.062058,0.04624 -1.569195,0.130765 -0.135965,0.02265 -0.254459,0.130767 -0.392299,0.130767 -0.179721,0 -0.34579,-0.101221 -0.523065,-0.130767 -0.684416,-0.114068 -1.544816,0 -2.223028,0 -1.264074,0 -2.528149,0 -3.792223,0 -0.800302,0 -1.556931,0.03116 -2.3537938,0.130767 -0.173009,0.02162 -0.353916,-0.04229 -0.523065,0 -1.015864,0.253966 -2.08932,0.391562 -3.138392,0.653831 -0.126862,0.03171 -0.268243,-0.04135 -0.392299,0 -0.184931,0.06164 -0.338134,0.19989 -0.523065,0.261532 -0.097535,0.03251 -0.9486625,0.08203 -1.046131,0.130768 -0.1102717,0.05514 -0.1445715,0.222546 -0.2615324,0.261533 -0.082704,0.02757 -0.1769581,-0.02114 -0.2615327,0 -0.5880481,0.14701 -0.9629973,0.65383 -1.5691958,0.65383 H 118.27864 Z"
       id="path430" /><circle
       style="fill:none;fill-opacity:1;stroke:#000000;stroke-width:0.5;stroke-linecap:round;stroke-dasharray:none;stroke-opacity:1"
       id="path1190"
       cx="11.440095"
       cy="69.770851"
       r="2.2885273" /><circle
       style="fill:none;fill-opacity:1;stroke:#000000;stroke-width:0.5;stroke-linecap:round;stroke-dasharray:none;stroke-opacity:1"
       id="path1190-3"
       cx="79.702583"
       cy="4.100832"
       r="2.2885273" /><path
       style="fill:none;fill-opacity:1;stroke:#000000;stroke-width:0.499999;stroke-linecap:round;stroke-dasharray:none;stroke-opacity:1"
       d="m 11.440095,72.05938 v 5.039381"
       id="path1400" /><path
       style="fill:none;fill-opacity:1;stroke:#000000;stroke-width:0.499999;stroke-linecap:round;stroke-dasharray:none;stroke-opacity:1"
       d="m 6.8946032,84.971782 4.5454918,-7.873021 4.592555,7.954538"
       id="path1402" /><path
       style="fill:none;fill-opacity:1;stroke:#000000;stroke-width:0.499999;stroke-linecap:round;stroke-dasharray:none;stroke-opacity:1"
       d="m 4.9906096,73.353898 3.9229336,2.264908 2.5265518,-1.458706 3.513973,2.028793 v -5.701432"
       id="path1404" /><path
       style="fill:none;fill-opacity:1;stroke:#000000;stroke-width:0.499999;stroke-linecap:round;stroke-dasharray:none;stroke-opacity:1"
       d="M 79.702585,6.3893591 V 12.371801"
       id="path1428" /><path
       style="fill:none;fill-opacity:1;stroke:#000000;stroke-width:0.499999;stroke-linecap:round;stroke-dasharray:none;stroke-opacity:1"
       d="m 77.994356,18.746997 1.708227,-6.375196 4.053754,4.053754"
       id="path1430" /><path
       style="fill:none;fill-opacity:1;stroke:#000000;stroke-width:0.499999;stroke-linecap:round;stroke-dasharray:none;stroke-opacity:1"
       d="M 86.927422,8.6449611 83.846871,10.423519 79.702583,8.0308141 75.324552,10.558471 76.565692,5.5910991"
       id="path1432"
       sodipodi:nodetypes="ccccc" /><rect
       style="fill:none;fill-opacity:1;stroke:#000000;stroke-width:0.499999;stroke-linecap:round;stroke-dasharray:none;stroke-opacity:1"
       id="rect1486"
       width="3.3853495"
       height="2.0922611"
       x="14.136779"
       y="68.395195" /><rect
       style="fill:none;fill-opacity:1;stroke:#000000;stroke-width:0.499999;stroke-linecap:round;stroke-dasharray:none;stroke-opacity:1"
       id="rect1486-5"
       width="3.3853495"
       height="2.0922611"
       x="73.527084"
       y="3.4988375" /><path
       style="fill:none;fill-opacity:1;stroke:#000000;stroke-width:0.5;stroke-linecap:round;stroke-dasharray:none;stroke-opacity:1"
       d="M 17.522128,69.441328 73.527086,4.5449681"
       id="path1568" /><path
       style="fill:none;fill-opacity:1;stroke:#000000;stroke-width:0.3;stroke-linecap:round;stroke-dasharray:1.2, 1.2;stroke-dashoffset:0;stroke-opacity:1"
       d="M 73.527086,4.5449681 V 69.441328 H 17.522128"
       id="path1572" /><path
       style="fill:none;fill-opacity:1;stroke:#000000;stroke-width:0.3;stroke-linecap:round;stroke-dasharray:none;stroke-dashoffset:0;stroke-opacity:1"
       d="m 23.863382,62.093327 c 0,0 4.523714,3.264403 4.523714,7.348001"
       id="path1592" /><text
       xml:space="preserve"
       style="font-size:3.175px;line-height:0px;font-family:arial;-inkscape-font-specification:arial;fill:none;fill-opacity:1;stroke:#000000;stroke-width:0.3;stroke-linecap:round;stroke-dasharray:none;stroke-dashoffset:0;stroke-opacity:1"
       x="22.967741"
       y="67.290329"
       id="text1648"><tspan
         sodipodi:role="line"
         id="tspan1646"
         style="fill:#000000;fill-opacity:1;stroke:none;stroke-width:0.3"
         x="22.967741"
         y="67.290329">$\ang{53}$</tspan></text><text
       xml:space="preserve"
       style="font-size:3.175px;line-height:0px;font-family:arial;-inkscape-font-specification:arial;fill:none;fill-opacity:1;stroke:#000000;stroke-width:0.3;stroke-linecap:round;stroke-dasharray:none;stroke-dashoffset:0;stroke-opacity:1"
       x="75.935295"
       y="38.766438"
       id="text1648-5"><tspan
         sodipodi:role="line"
         id="tspan1646-2"
         style="fill:#000000;fill-opacity:1;stroke:none;stroke-width:0.3"
         x="75.935295"
         y="38.766438">Desnivel: $40\,\m$</tspan></text><text
       xml:space="preserve"
       style="font-size:3.175px;line-height:0px;font-family:arial;-inkscape-font-specification:arial;fill:none;fill-opacity:1;stroke:#000000;stroke-width:0.3;stroke-linecap:round;stroke-dasharray:none;stroke-dashoffset:0;stroke-opacity:1"
       x="27.762863"
       y="33.292061"
       id="text2455"><tspan
         sodipodi:role="line"
         id="tspan2453"
         style="fill:#000000;fill-opacity:1;stroke:none;stroke-width:0.3"
         x="27.762863"
         y="33.292061">Hilo tensado</tspan></text></g></svg>
